<svg viewBox="0 0 134 129" fill="none" xmlns="http://www.w3.org/2000/svg">
  <defs/>
  <path d="M46.1 111.9v-5l25.4 13 45.2-8.8v6.8l-42.1 8.3L46 112z" fill="#58B5F7"/>
  <path d="M44.8 108.1V19.9L60 11.1s3.7 9.6 5.2 16.9c1.6 7.3 3 20.6 3 31.2l-.2 59.5L44.8 108z" fill="#0077C8"/>
  <path d="M107.3.3H60.5s7.5 20.9 9.5 35c2 14 2 85.2 2 85.2l46-9.4s1.4-63.2 0-79.1C116.3 16.1 107.2.3 107.2.3z" fill="#F9CB3C"/>
  <path d="M80.6 102.6V76l8.3-1.3v26.8l-8.3 1zM101.8 101.3V74.8l8.3-1.2v26.7l-8.3 1zM72 120.5l-4-1.8s.5-72.3-1.7-84.4C64 22.2 56.9 2 56.9 2l3.6-2s7 18.4 9.3 32.8C72 47 72 120.5 72 120.5z" fill="#FFB05A"/>
  <path d="M94 14.6l-21.7.5 3.5 21.2 22-1.3L94 14.6zM77 52.4v-8.8l33.4-2.3v8.3L77 52.4z" fill="#0077C8"/>
  <path d="M102.3 33.5l-2-9.8 6.5-.5 2.5 7.5-2.7 2.8h-4.3zM78.8 54L77 52.2l33.2-3 3.6 1.7-35.1 3z" fill="#FFB05A"/>
  <path d="M18.3 120.6l.1-.4v-.4h-.3-.1-.9-.5l-.7-.4h1.6a1 1 0 00.2 0h.9v-.2c.1-.1.3-.2.3-.4l.2-.4.1-.5.2-.4.2-.5.2-.4.3-.3.1-.4v-.1l-.1-.1-.1-.1h-.2v-.1l-.1-.1v-.1h-.2v-.2h-.1v-.1h-.1v-.1h-.1l-.1-.2H19v-.2h-.6-.2-.1H17.8h-.4-.1H17a.6.6 0 01-.2 0h-.2H16.2h-.5H15.5h-.1H14.8h-.1-.5a1 1 0 01-.2 0h-.1-.4H13.2h-.4-.5-.1-.2-.1H11.2h-.1-.2a1.2 1.2 0 01-.2 0h-.1c0-.1 0-.1-.1 0h-.1l-.1-.1H10 10 9.7h-.4l-.2-.2-.2-.2H14a1 1 0 01.2.1H16.9a.6.6 0 01.2 0H18.6a.3.3 0 01-.2-.3h-.1l-.1-.1v-.1l-.2-.1-.1-.1v-.1l-.2-.1v-.1l-.2-.1v-.1l-.1-.1H17v-.2l-.1-.1h-.1l-.1-.2h-.1l-.1-.2-.1-.1-.2-.2a.4.4 0 01-.3-.3v-.1h-.2v-.1l-.1-.2h-.1l-.1-.2h-.1v-.1l-.1-.1-.2-.1-.1-.1a.3.3 0 01-.2-.2l-.1-.1a.7.7 0 01-.1-.2h-.1v-.1l-.2-.1v-.1l-.1-.1v-.1H14l-.1-.1v-.1h-.2v-.1h-.6-.5H12.4h-.1H12h-.5-.1a1 1 0 01-.2 0h-.4-.7H9.5l-.2-.1h-.1H9 9a.6.6 0 01-.2 0h-1-.1H7.4 6 5.8h-.1a.5.5 0 01-.3 0h-.2a33.7 33.7 0 01-.2-.4h4.2a.6.6 0 01.2 0H13.3l-.2-.2-.2-.2-.1-.1-.1-.2h-.1v-.1h-.1v-.2h-.2l-.1-.1v-.1l-.2-.1v-.1l-.2-.1a.3.3 0 01-.1-.3h-.1l-.1-.1-.1-.1-.1-.1v-.1H11v-.2H11h-.1v-.1a.5.5 0 01-.2-.2v-.1h-.2v-.2h-.2v-.1l-.2-.2v-.1H10l-.1-.1v-.1h-.1v-.1h-.1v-.2h-.2v-.2h-.1l-.2-.2-.2-.1v-.1l-.2-.1v-.1l-.2-.1v-.1H7.5h-.2-.1a.6.6 0 01-.2 0h-.2-.1-.4-.1a1.1 1.1 0 00-.1 0H6h-.1H5.6h-.4H5 5h-.2-.4-.1-.1H4 4a.4.4 0 00-.2 0 .6.6 0 01-.2 0H2.5l-.1-.4H4a.6.6 0 01.2 0H8.3v-.2H8l-.2-.1h-.1v-.2h-.2v-.2h-.2v-.2h-.1v-.2a.2.2 0 00-.1 0H7L7 102h-.1l-.1-.2h-.1v-.1h-.1l-.1-.1v-.1h-.1v-.2h-.1l-.2-.2v-.1l-.3-.1v-.1l-.1-.1h-.1v-.1l-.1-.1-.1-.1v-.1l-.2-.1v-.1L5 100l-.1-.2h-.2v-.2h-.2v-.1l-.1-.2-.1-.1v-.1H4V99H4a.4.4 0 000-.1h-.6H3h-.5-.1-.7-.4-.2H1a37.1 37.1 0 010-.4h1.4a.3.3 0 00.1 0H3.6l-.2-.1v-.1l-.2-.2V98H3a.3.3 0 01-.2-.2l-.2-.1a1.2 1.2 0 010-.1l-.1-.1-.1-.1v-.1a.2.2 0 00-.1 0v-.1l-.2-.1a.4.4 0 01-.1-.2l-.2-.1v-.1h-.2v-.2h-.2v-.2h-.1l-.1-.2h-.1L1 96 1 96l-.2-.2-.2-.2v-.1H.4v-.1H.3v-.1H.2L.1 95v-.2H0v.4l.1.2V95.7l.1.1v.4l.1.1V97l.1.1v.5l.2.2v.5l.1.1V98.6l.1.1v.2H1v.5l.1.1V99.8l.1.1V100.2h.2v.6c.1 0 0 .1 0 .2h.2V101.4l.1.1V101.7l.2.1v.4l.1.1V102.6l.1.1v.2h.1v.2l.1.1.1.2v.1l.1.1v.2l.1.2v.1l.1.1v.2l.1.1v.1l.2.1v.4l.2.1v.2l.1.2v.1l.1.2h.1v.2l.1.1v.1l.1.2.2.2V107H4l.2.2v.4h.2v.2l.1.1v.1l.1.2.2.2v.2l.1.1.1.1v.2H5l.1.2.1.1v.1l.1.2h.1v.2h.2v.2l.1.1.1.1v.1l.2.1v.2l.2.2v.1h.2v.2l.1.1v.1l.2.1v.1l.1.2H7v.2h.2v.2l.1.1.1.1h.1v.2l.2.1v.1l.1.1.1.1.1.1.1.1.1.1v.1l.2.1v.2h.2V114h.2l.1.1.1.1.1.1v.1l.2.2.2.1v.1h.2v.2l.2.1v.1l.2.1.2.2.1.2h.2v.2h.2v.1l.2.1h.1v.2h.2v.2h.2l.1.1.1.1h.1l.1.1.1.2h.1l.2.1v.1l.1.1h.2v.1l.2.1v.1l.2.1.1.1h.1l.1.2h.2l.2.2.2.1h.1l.1.1.1.1.1.1.1.1h.2c0 .1 0 0 .1 0l.1.2.1.1h.2v.1h.2l.1.1h.1l.1.2h.1l.2.1.2.2h.2l.1.2h.2l.2.1.1.1h.2v.1l.2.1h.1l.1.1.1.1h.2v.1h.2c0 .1.1 0 .2 0v.2h.1zM9.1 97.8V99a.5.5 0 010 .2v4.8l.2.1h.1v.1h.1l.1.2.2.2.2.2v.1a.8.8 0 01.2.1v.1h.1l.1.2h.1v.1h.1l.1.1v.1l.2.1v.1l.2.1v.1l.1.1.1.1.2.1v.1l.1.1.1.1a.4.4 0 01.1.1h.1l.1.2a.3.3 0 01.2.2v.1h.2v.2h.2v.2l.2.1a.3.3 0 01.2.3h.1v.2h.2v.2h.2v.2h.2v.1h.1v-.1-.2-.9-.2-.1-.4V106v-.1l.1-.1v-.1-.1-.1-.4-.2a.5.5 0 010-.1v-.1l-.1-.1-.1-.2h-.1v-.2l-.1-.1-.1-.1v-.1l-.2-.1v-.2l-.1-.2H13l-.1-.2v-.1l-.1-.1-.1-.2-.1-.2v-.1l-.2-.1v-.2l-.2-.2v-.1-.1l-.2-.1v-.2h-.1v-.2l-.1-.1v-.1l-.1-.2h-.1v-.2l-.1-.1v-.1l-.1-.2-.2-.2v-.1-.2H11l-.1-.2v-.1l-.1-.1v-.2h-.1l-.1-.2V99v-.1l-.1-.2h-.1v-.2-.1l-.2-.2-.2-.2-.2-.1h-.2l-.2-.1-.1-.1h-.1H9v.1zM19 111.4l-.1-.1h-.1l-.1-.2h-.1l-.1-.2h-.1v-.2l-.2-.1v-.1H18v-.2h-.1l-.1-.2h-.1l-.1-.2v-.1l-.2-.1v-.1l-.1-.1-.1-.1-.1-.1-.1-.1-.1-.1v-.1l-.2-.2-.1-.2h-.1l-.1-.2-.2-.2-.1-.2-.1-.1-.1-.1v-.1l-.1-.1-.1-.1-.1-.2-.2-.2-.1-.2-.1-.1-.1-.1v-.1l-.1-.1-.1-.2-.2-.2-.1-.2v-.1l-.2-.1v-.1l-.1-.1v.4a.3.3 0 000 .2V109l-.1.2.2.1v.1l.1.1.1.1.1.1v.1h.1v.1h.1v.1a.3.3 0 01.3.2.2.2 0 01.2.2l.1.1a1 1 0 01.2.2l.1.2h.1v.1h.1v.1h.1l.1.2.2.2.2.2.1.1.1.2h.2v.1l.2.2.1.1.1.1.1.1.1.1.1.1v.1l.2.1v.1l.2.1v.1h.2v.2h.1l.2.2v.1h.1v.1h.1v.1h.1v.1h.1v-.2-.1-.2a.5.5 0 000-.1v-.1-.1-.1-.2-.4-.4-.2-.1a.5.5 0 010-.2v-.2z" fill="#01866A"/>
  <path d="M4.5 95.9V98.3h-.1v.7l.1.1.1.1.1.2.2.1.1.2.1.1.2.1.1.1v.1l.2.1v.1l.1.1.1.1.1.1a.3.3 0 01.2.2h.1l.1.1.1.2h.1a1.2 1.2 0 00.1.2v.1a1.1 1.1 0 01.2.1.6.6 0 01.1.2.3.3 0 01.3.2l.1.2h.2v.1a.3.3 0 01.2.2.3.3 0 01.2.3H8v.2h.2l.1.1.1.1v.1l.2.1v-.1-.1-1h.1v-.1-.1-.2-.1-.1-.1-.1-.1-.1-.2a.5.5 0 010-.3v-.1-.2-.5-.5-.2-.1-.2-.1-.1-.4-.1-.1-.4-.2h-.4l-.1-.1H8L8 97l-.1-.1h-.1-.2v-.1h-.2l-.1-.1H7v-.2h-.2-.1-.2v-.2h-.2-.1H6l-.1-.1h-.1-.2V96h-.2-.1H5L5 96h-.1-.2-.1l-.1-.2zM.6 95h.1v.1h.1v.2H1l.1.1v.2h.1l.2.2a.4.4 0 01.2.3h.1l.1.1.1.1.1.2h.1a.7.7 0 010 .1l.2.1.1.1h.1v.2h.1a.6.6 0 01.1.2l.1.1.1.1.1.1h.2v.2h.1v.1h.1v.1h.1l.1.2v.1h.2v.2a.3.3 0 01.2 0v-.1-.1-1-.1-.1-.2-.1-.1-.1-.1-.1-.2-.2a.5.5 0 010-.2h-.2v-.1h-.2-.1l-.2-.1h-.1-.1l-.2-.1-.2-.1h-.4l-.2-.1h-.2l-.1-.1h-.2-.1l-.1-.1H1 1c0-.1-.1 0-.2 0l-.1-.2H.5v.1z" fill="#01866A"/>
  <path d="M.2 95v.1h.1v.1l.1.1h.1v.1l.1.1.1.1h.1l.1.2H1v.2l.2.1.2.2a.3.3 0 00.3.3v.1h.1v.1H2l.2.2a.4.4 0 00.1.1l.1.2a.3.3 0 01.1 0v.1l.2.2.1.1.2.2.2.2.1.1.1.2h.1l.1.1v.1h-.2-.4H2.6h-.9-.2-.1-.1H1 .9a41.8 41.8 0 000 .3H3.9a.2.2 0 01.1 0v.1l.2.1.1.1.1.1.1.2h.1v.1l.2.1v.1l.1.1.1.1H5l.1.2h.1l.1.2.2.2.1.1.2.2.2.2.1.1.1.1h.1v.1l.1.2.2.1v.1l.2.1v.1l.2.1.1.1v.1h.1v.1h.2v.2h.1l.1.2.1.1.1.1.1.1H8a.6.6 0 00.1.1.3.3 0 00.1.2H8a.6.6 0 00-.2 0H7.3 7h-.8-.4-.1H5.2 5h-.4-.4a.6.6 0 00-.3 0h-.1H2.7 2.4a47.3 47.3 0 00.2.3H4a.7.7 0 00.2 0H8l.1.1h.6a.3.3 0 00.2.2.4.4 0 00.2.3h.2v.1l.1.1.1.1.1.1.1.1v.1h.2v.2h.1v.1h.1v.1l.1.1.2.1v.1h.1v.1a.4.4 0 00.2.2l.1.1.1.1.1.1v.1h.1v.1h.2v.2h.1l.2.2a.4.4 0 00.2.1v.2h.1l.1.2h.1l.1.2.2.2h.1v.1h.1v.2h.2v.1l.1.1.1.1.1.1.1.1.1.1a.4.4 0 00.2.2h-.2-.2H12.7h-.4H12a1 1 0 00-.1 0H11.3h-.1-.4-.7-.8-.1a.7.7 0 00-.3 0h-.1-1.4-.1-.5l-.2-.1h-.5H5.8h-.1-.1H5c0 .1 0 .2.2.3H7.6c.1.1.2.1.2 0h.9l.2.1H9a.7.7 0 00.3 0H12.1a.6.6 0 00.3 0h1.3v.1l.2.1.2.2.2.2.1.2.1.1h.1v.2h.2v.2h.2v.2h.2a.7.7 0 01.1.1l.1.1v.1l.2.2.1.1h.1v.1l.1.1.1.1.1.1.1.1a.3.3 0 00.2.2l.2.2.1.1.2.2v.1h.2v.2h.2v.2h.1a.3.3 0 00.2.3h.1l.1.2.2.2.1.1.2.1v.2h.2a3 3 0 000 .2h.1-.1-.1-.2-.1a.5.5 0 00-.2 0h-.1-.2-.8-.5-.5-.1l-.2-.1h-.1-.2a.9.9 0 01-.1 0H15h-.1H14a.6.6 0 00-.2 0 .9.9 0 01-.2 0h-.2-.1-.1-.4-.2-.2-.1H12h-.1-.7-.1-.2-.1H10.5h-.1-.1-.2a.5.5 0 00-.2 0h-.2H8.8h.2l.2.3h.4a.4.4 0 00.3 0 .6.6 0 00.2 0h6.3l.1.1H19l.1.2.2.1v.1h.2v.1l.1.2.1.1.1.1h.1v.1h.2v.2h.1l.1.2v-.1l.3-.2a1 1 0 00-.2-.2l-.2-.2H20l-.1-.2-.1-.2h-.2v-.1l-.1-.1-.1-.1v-.3-.1-.1-.2-.2-.1a.8.8 0 000-.2v-.2-.1-.1-.4-.4a.4.4 0 000-.2v-.1h-.1l-.2-.2V113a1.9 1.9 0 010 .2v.5H19V114h-.1v-.1h-.1v-.1h-.2a.3.3 0 00-.2-.3.3.3 0 00-.3-.3v-.1H18v-.2h-.2v-.2h-.2v-.2h-.2v-.2h-.2v-.1l-.1-.2H17l-.2-.1v-.2h-.1l-.1-.1-.1-.1-.1-.1-.1-.1v-.1l-.2-.1v-.1H16v-.1h-.1v-.1l-.1-.1-.1-.1-.1-.1-.1-.1-.1-.1a.2.2 0 00-.2-.2l-.1-.1H15v-.1h-.1v-.1h-.1v-.1h-.1v-.2h-.2v-.2a.5.5 0 00-.2-.2h-.1v-.2-.1-.2-.1-.2-.9-.2-.1-.1V106.7v-.1-.5a.3.3 0 010-.1v-.1-.1-.2-.1-.2l-.2-.2v-.1l-.1-.1V108.7h-.2a.4.4 0 00-.1-.2l-.1-.1-.1-.1-.1-.1-.1-.1v-.1a1 1 0 00-.2-.1v-.1l-.2-.1v-.1l-.1-.1-.1-.1h-.2v-.2a.5.5 0 00-.2-.2v-.1H12v-.2h-.2v-.1l-.2-.2-.1-.2h-.2v-.2a1.6 1.6 0 01-.1 0l-.1-.1-.1-.2a.4.4 0 00-.2-.1.4.4 0 00-.2-.2v-.1l-.2-.1v-.1a1 1 0 00-.2-.1v-.1H10v-.1H10v-.1l-.1-.1-.1-.1-.1-.1v-.1l-.2-.1v-.1l-.2-.1h-.1v-.2l-.2-.1V103.4v-.1-.2-.1-1-.1V101.5v-.1-.1-.2-.1-.1l.1-.2v-.1V100.3v-.1-.1-.5-.1-.4-.2-.1-.1-.1-.2-.4-.2-.4l-.3-.1V101.7l-.1.2V103.3l-.1-.1h-.1l-.1-.2a1 1 0 00-.1 0l-.1-.2H8l-.1-.2-.2-.2-.1-.2h-.2v-.2h-.1l-.2-.1v-.1l-.1-.2h-.2v-.1l-.1-.1h-.1v-.2h-.1v-.1h-.2v-.1-.1h-.1v-.1l-.2-.1v-.1h-.2v-.1a.6.6 0 00-.2-.2.3.3 0 00-.2-.3v-.1h-.2l-.1-.1-.1-.2H5a.3.3 0 00-.2-.2.7.7 0 000-.1l-.2-.2-.1-.2h-.1v-.2-.1V98.2 98v-.9-.1-.1-.2-.2-.2V96 96v-.1-.1a45.3 45.3 0 00-.3 0v.4a.5.5 0 000 .3V98.5a.3.3 0 00-.2 0l-.1-.1-.1-.1-.2-.2v-.1h-.1v-.1h-.2v-.2l-.2-.1-.1-.1-.1-.2-.1-.1-.1-.1v-.1h-.2v-.1-.1h-.2v-.1l-.2-.1v-.2h-.2V96h-.2v-.2h-.1l-.1-.1-.1-.2a.4.4 0 00-.1 0v-.2H1l-.1-.1v-.1L.7 95 .6 95a1.4 1.4 0 00-.2-.1v-.1H0a14.3 14.3 0 000 .2zM18 119.5h-.4-.5-.7-.5l.7.3H18.4v-.1l.2-.2h-.4-.1z" fill="#024F3F"/>
  <path d="M10.4 98.4v.1l.1.1v.1l.1.2.1.2v.1l.1.2h.1v.2l.1.1v.1l.1.1v.2h.2V100.5l.1.2.1.2.1.1v.1l.1.2.2.2v.2l.1.2h.1v.2l.2.1v.2l.1.2h.1v.2l.1.1v.1l.2.2.1.2v.1l.2.1V103.8h.1l.1.2h.1v.2l.1.1.1.1.1.1v.2h.1l.1.2v.1l.2.1v.2l.2.2.1.2h.1v.2l.1.1.1.1.1.1v.1l.2.2.1.2v.1l.2.1v.1l.1.1.1.1v.1l.2.2.1.2h.1l.1.2v.1l.1.1.1.1.1.1v.1l.2.1v.1l.2.1v.1l.1.2h.1l.1.2.2.2.1.2h.1l.1.2v.1l.2.1v.1l.2.1v.1l.1.1.1.1.1.1.1.1v.1l.2.1v.1l.2.1v.1l.2.1v.1l.1.1.1.1.1.1v-.1-.2h-.3v-.3-.2h-.3v-.2l-.1-.2-.1-.2v-.2h-.2v-.3h-.3v-.3-.1l-.1-.2-.2-.1v-.2l-.2-.2v-.1l-.1-.2v-.2l-.2-.2v-.1l-.2-.2-.1-.1v-.2l-.2-.1v-.2-.2l-.2-.2v-.1l-.2-.2v-.2H16v-.3l-.1-.1v-.3l-.1-.1-.1-.2v-.2l-.2-.1v-.2l-.2-.1v-.2-.2l-.1-.2v-.2l-.2-.1v-.2l-.1-.2v-.2l-.2-.1v-.2l-.1-.2v-.1c-.1-.1 0-.2 0-.2-.1 0 0-.1 0-.1l-.1-.1v-.1h-.1v-.3-.2l-.2-.1v-.2-.2s-.2 0-.2-.2v-.1-.2-.2l-.1-.2c-1.2-.8-2.4-1.5-3.6-2v.1l.1.2zM19.6 112.1l-.2-.2v-.1l.1.2v.1z" fill="#000"/>
  <path d="M12.7 84.7h.1v.1h.2l.1.1h.1v.1h.2l.1.1h.1l.1.1a1.4 1.4 0 00.2.1.7.7 0 01.3.2h.2v.1h.1a.7.7 0 01.3.2h.2l.1.1h.1l.1.1h.1l.1.1a.6.6 0 01.3.2l.5.2.2.1h.1v.1h.2v.1h.2l.1.1.2.1h.1l.1.1.2.1h.2v.1h.1l.2.1.1.1.2.1h.1l.2.2h.2l.2.1.1.1h.2v.1l.2.1h.1l.1.1a.4.4 0 01-.1-.5l-.2-.3a.5.5 0 01-.1-.3l-.1-.2v-.2l-.1-.1v-.3l-.1-.1v-.1-.1H19l-.2-.3v-.2-.2l-.1-.1V85l-.2-.2v-.2-.2a1.2 1.2 0 010-.2l-.1-.1V84l-.3-.3v-.2-.2H18v-.1L18 83v-.2-.2l-.1-.1v-.3l-.2-.1v-.2-.1h-.1v-.1-.1-.2c-.1 0-.2 0-.2-.2v-.4-.1l-.1-.2-.2-.2v-.1H17l-.2-.1-.1-.1h-.2l-.2-.2h-.1l-.1-.1H16l-.2-.1h-.1l-.1-.2h-.2l-.2-.1-.1-.1h-.2V79h-.1l-.1-.1h-.2l-.2-.2h-.1l-.1-.1-.2-.1h-.2l-.1-.1-.2-.1h-.1v.3l-.1.1v.8l-.2.2v.2l.1.2v.5l-.2.2v.2c-.1 0 0 0 0 .2v.5l-.2.2v.2l.1.2v.5l-.1.2v.2l-.1.2V84.6l.1.1zM27.9 85.9h-.1l.1.1V86zM24.3 81.5v.2h-.1v.2l-.1.1v.1l-.1.2a1.2 1.2 0 01-.1.1.9.9 0 01-.1.3l-.1.2-.1.1v.1a.6.6 0 01-.2.3 1.1 1.1 0 01-.2.3v.2H23v.2l-.1.1-.1.2v.1l-.1.1v.1h-.1V85l-.1.1-.1.1v.1l-.1.1v.1l-.1.1v.2l-.2.1V86.3H22v.2a.4.4 0 00-.1 0v.2l-.2.1v.2l-.1.1v.1l-.1.2-.1.2v.1l-.3.4a1.2 1.2 0 010 .1l-.1.1v.2h-.1v.2h-.1v.2l-.1.2v.5l.2.1v.2l.1.2v.4l.2.1v.4h.1V91.2l.1.1V91.6l.2.2v.1a.5.5 0 01.1.4l.1.2v.1l-.2.1h.3v.4h.1a1 1 0 010 .2l.2.2v.4l.2.2v.1l.1.2v.2a.4.4 0 01.1.4v.1l.1.2v.2l.2.1a.4.4 0 010 .4l.1.2.1.1v.3a.9.9 0 01.1.2v.1l.1.2v.2l.1.1v.2l.2.2v.1h.1v-.1l.1-.1.1-.2.2-.3a2.7 2.7 0 010-.1l.1-.2v-.1h.1v-.2l.1-.2.1-.1.1-.1V96v-.2h.2v-.1-.1-.1a.6.6 0 01.2-.3l.1-.2V95h.1v-.1a.7.7 0 01.2-.3 1.2 1.2 0 010-.2l.1-.1v-.1l.1-.1.1-.2v-.1l.1-.1v-.1l.1-.2.1-.1a1.5 1.5 0 01.1-.2v-.2l.2-.1v-.2a1.4 1.4 0 01.1-.2h.1v-.1-.1-.2-.2-.2-.2-.1-.2-.2l.1-.2v-.2-.2-.2-.1-.2-.2-.2l.1-.2V89v-.2-.1-.2l.1-.2v-.4-.2-.2l.1-.1v-.2-.2-.2l.1-.2v-.2l.1-.1V86v-.2-.2l.1-.2v-.2-.1-.2l-.1-.1-.1-.2v-.2l-.2-.1-.1-.2-.1-.1-.1-.2h-.2l-.1-.3H26v-.2l-.2-.2v-.1l-.2-.2-.1-.1v-.2l-.2-.1v-.2H25V82h-.2l-.1-.3-.1-.1h-.2v-.2zM13.5 77.8l.2.1.2.1.2.1h.1v.1h.2v.1h.1l.2.2h.2l.2.1.1.1h.2v.1h.2v.1h.1l.2.1.2.1.1.1h.2l.1.1.2.2a1.8 1.8 0 00.2 0v-.1l-.1-.1-.1-.2v-.4l-.1-.1v-.1a.4.4 0 01-.2-.5l-.1-.1a1.1 1.1 0 010-.2l-.1-.1v-.3-.1H16a.6.6 0 010-.4l-.2-.2v-.1l-.1-.2v-.1l-.2-.2v-.2l-.1-.2v-.2-.2l-.1-.2V75c-.1 0-.2 0-.2-.2v-.2-.1-.2L15 74a.4.4 0 010-.4l-.1-.1-.1-.2a2.6 2.6 0 010-.2l-.1-.1h-.1V73.7l-.2.2v.2l-.1.1V74.7l-.1.2-.2.1v.8l-.2.1v.2l-.1.2v.7l-.1.2v.2l-.1.2-.1.2v.1zM22.4 95.2h-.2v.1l.2-.1zM25.9 108h-.1-.2l-.1-.1-.2-.1H25v-.2H24.7l-.1-.2h-.2-.1v-.1h-.2v-.1H24a.7.7 0 01-.3-.2h-.1l-.1-.1h-.1-.1v-.1h-.1l-.2-.1H23l-.4-.2v-.1h-.1l-.2-.1-.2-.1H22a1.6 1.6 0 00-.2-.2h-.1l-.2-.1-.2-.1H21v-.1a1.5 1.5 0 00-.2-.1h-.1l-.2-.1v-.1h-.1-.1v-.1h-.1-.2v-.1H20l-.2-.1-.1-.1-.2-.1-.2-.1a1.8 1.8 0 00-.2-.1H19v-.1h-.2l-.2-.1-.1-.1h-.1l-.1-.1h-.1v-.1H18l-.2-.1-.1-.1-.2-.1h-.2l-.1-.1-.2-.2h-.2l-.2-.1a1.4 1.4 0 01-.1-.1h-.1v-.1a1.3 1.3 0 01-.3-.1H16l-.2-.2.1-.2v.2h-.1-.2v-.1h-.1-.2l-.1-.2H15l-.1-.1-.2-.1a51.7 51.7 0 01-.2-.2V102.6l.2.2v.2l.3.1-.1.2v.2l.1.2.1.1.1.2v.2l.1.2v.2l.1.1.1.2.1.1v.2l.2.2.1.1v.3h.2l-.1.3.2.1v.2l.1.2.1.1.2.2v.4h.2v.4l.2.2.1.1.1.2v.2l.1.2.1.1.1.2v.2h.3v.3l.1.1v.2l.2.1v.2l.2.1v.2l.2.2v.2l.1.1.3.1v.4h.3v.4h.1l.1.2.1.1v-.1.4l-.1.2V113.4a.8.8 0 010 .2V114.6h.2v.1l.2.1v.2l.2.1v.1l.2.1.1.1.1.1h.2l.2-.5c0-.2 0-.3.2-.5l.3-.3.2-.2h-.1l-.1-.1h-.1v-.1H21a.7.7 0 000-.1h-.2v-.1h-.2v-.1a50.9 50.9 0 01-.6-.8H20.3v.1l.2.1.4.2h.1l.2.1h.1v.1h.1l.1.1h.2v.1l.2-.1.2-.4.3-.4.3-.4.3-.3c.1-.2 0-.4.2-.5l.3-.4.3-.3.3-.4.4-.3.3-.3.5-.5.1-.3.5-.2c0-.1 0-.3.2-.5l-.1-.1h-.1zM19.5 76.5v.2l-.1.1v.2h-.1l-.1.2v.2H19v.1l-.1.1v.1a.8.8 0 01-.2.3v.1a.5.5 0 00-.2.2 2.5 2.5 0 00-.1.3v.1l-.1.2-.1.1v.2l-.2.1v.2a2.3 2.3 0 01-.2.2v.2l-.1.2v.9l.2.2v.4l.1.1.1.2a.4.4 0 01.2.4V82.6c.1.1.1.2 0 .2l.2.2a.7.7 0 010 .2.4.4 0 01.1.3c.1 0 .2 0 .2.2v.4l.1.1.1.2v.2a1.2 1.2 0 010 .2l.1.1v.2a.4.4 0 01.2.4v.1l.2.2a.8.8 0 010 .3l.2.2v.2l.1.2v.2a.4.4 0 010 .3l.2.1v.2l.1.1V87.9l.2.1a.5.5 0 010 .2l.1-.1v-.2h.1v-.1l.3-.4v-.2l.1-.1V87v-.1h.1a1.2 1.2 0 01.1-.3l.1-.2a.8.8 0 01.2-.3V86l.1-.1v-.2l.1-.1a2 2 0 00.1-.2 1.5 1.5 0 01.1-.2l.1-.2.1-.1a1.3 1.3 0 010-.2l.1-.2h.1v-.1-.1h.1l.1-.3v-.1h.1v-.2l.1-.1v-.1a2.4 2.4 0 00.2-.2v-.1l.1-.1h.2-.2v-.2l.1-.1v-.1l.1-.1.1-.2.1-.2v-.1h.1V82v-.1l.1-.1v-.1l.1-.2.1-.1v-.1l.1-.1.1-.2.3.3V81H24v-.3h-.3v-.2l-.2-.1-.1-.2-.1-.1-.2-.1v-.2l-.2-.1-.2-.1v-.2l-.2-.1-.1-.2h-.2V79l-.2-.1-.1-.2-.2-.1v-.2h-.3v-.2l-.2-.1-.1-.2-.1-.1-.2-.1-.1-.2h-.2v-.2l-.2-.1-.2-.2V77l-.3-.1-.1-.1-.1-.2h-.1zM15.1 72.8l.1.2v.1h.1v.2l.1.2v.2l.1.1.1.2v.2l.1.2V74.7a.4.4 0 01.2.4l.1.1v.2l.1.2v.2l.1.2v.1l.2.2v.2l.1.1v.2a.7.7 0 01.1.3v.3l.1.1v.2a.4.4 0 01.2.4l.1.1v.2h.1v.5l.2.2v.2l.2.1v0l.1-.2.1-.2.1-.2.1-.1v-.1a1.1 1.1 0 01.1-.2 1.6 1.6 0 00.1-.3l.1-.1v-.1h.1v-.2h.1v-.1-.1l.1-.1.1-.2.1-.2.1-.2.1-.2.1-.1v-.2l.1-.1.1-.1.3.3v-.2h-.2l-.1-.2-.2-.1-.1-.2h-.2l-.1-.2h-.2v-.2H18V75l-.2-.1-.1-.1h-.3v-.2l-.2-.2h-.1l-.2-.2H17l-.2-.2-.1-.1-.1-.2h-.2l-.2-.1-.1-.1-.1-.2h-.2l-.1-.3h-.2l-.1-.1-.2-.2zM27.6 85.4l-.1-.1h-.1l.2.3v-.2zM13.3 78.1l.1-.1v.1zM28.7 87.1v.1zM28.2 86.3v0zM29.2 88v-.1.1zM23.6 98h-.2.2zM28.9 87.5l-.1-.1v.1zM14.7 72.7v-.1.1z" fill="#01866A"/>
  <path d="M14 100.3v.5l.2.2v.4l.1.1v.2l.1.2v-.1h.2l.1.1a1.6 1.6 0 01.3.1l.1.1h.1l.2.1.1.2H15.8v.1h.1a.6.6 0 01.3.2h.2l.1.1h.1l.1.1h.1v.1h.2l.2.2.2.1h.1l.2.1h.2v.2h.1a.8.8 0 01.2 0l.2.1.1.1h.1l.1.1.2.1h.1v.1h.2l.2.1a9.9 9.9 0 00.3.2h.2v.1h.1l.2.1v.1h.2l.1.1h.1l.1.1h.1v.1h.2a1.4 1.4 0 00.2.2 1.5 1.5 0 01.2 0l.1.1h.2l.1.1.2.2h.2l.2.1a1.8 1.8 0 01.3.2h.1v.1l.4.2h.2l.1.1h.2v.1h.2v.1h.1l.2.1a.7.7 0 01.3.2h.1l.1.1a.6.6 0 01.3.2h.2l.1.1.2.1h.2v.1h.2v.1h.2v.1h.1l.2.1v-.2l-.2-.2v-.2l-.1-.2v-.2h.2-.3v-.2l-.1-.1v-.2l-.1-.2v-.1l-.2-.2v-.3-.1-.1l-.2-.2v-.3l-.2-.3v-.2a.4.4 0 01-.2-.5 1.8 1.8 0 010-.1l-.1-.2v-.2l-.1-.2v-.1-.2l-.2-.2v-.2l-.1-.2v-.4h-.1v-.1-.1-.1h-.1a.3.3 0 01-.2-.5l-.1-.1v-.3l-.1-.1-.1-.2v-.2l-.1-.1v-.3-.1-.2l-.1-.2-.1-.1v-.2c-.1 0-.2 0-.2-.2h-.1-.1-.1l-.1-.1-.2-.1-.1-.1h-.1-.1l-.1-.1h-.1L22 98H22l-.1-.1h-.1v-.1h-.2v-.1h-.2l-.1-.1-.2-.1H21l-.1-.1-.2-.1h-.1l-.1-.1h-.1l-.1-.1-.2-.1-.2-.1h-.1v-.1h-.2a.5.5 0 000-.1h-.2l-.5-.3-.1-.1h-.1-.1l-.1-.1-.2-.1-.2-.1a.8.8 0 01-.3-.2h-.2l-.1-.1h-.1a.6.6 0 01-.3-.2l-.2-.1-.2-.1h-.1v-.1h-.2L16 95h-.1l-.1-.1h-.1l-.2-.2h-.1l-.2-.1a1.9 1.9 0 01-.2-.1h-.1l-.1-.1h-.1l-.1-.1h-.1l-.1-.1h-.1L14 94H14l-.2-.2h-.2v-.1h-.2l-.1-.1a.6.6 0 01-.3-.2h-.1-.1l-.2-.1a42.6 42.6 0 01.2-.5h.2l.2.1.1.1.2.1h.2v.1h.1l.1.1.3.2h.1l.2.1a.8.8 0 01.3.1l.1.1h.1l.2.1a1.4 1.4 0 01.2.2H15.8l.1.2h.1l.2.1.5.3h.2l.1.1h.2a2.5 2.5 0 00.2.2h.2l-.1.3v-.2h.2l.2.1a.7.7 0 01.3.2l.2.1a1.2 1.2 0 01.2 0v.1h.1l.1.1h.1a.6.6 0 01.3.2l.5.3h.2l.1.1.2.1h.2l.1.1.2.1.1.1.3.1.1.1h.2v.1h.2v.1h.1l.2.1h.1v.1h.2v.1l.2.1h.2v.1h.1l.1.1.3.1v-.1-.2l-.2-.2v-.2a.7.7 0 010-.3h-.1v-.2-.2l-.2-.1v-.2-.2l-.1-.2-.1-.2v-.1l-.1-.2-.1-.2V95l-.1-.1v-.3-.1l-.1-.2-.1-.1v-.2-.2c-.1 0-.2 0-.2-.2v-.2h-.1v-.1l-.1-.2v-.2-.2l-.1-.1v-.2L21 92V92l-.1-.2v-.2l-.1-.2v-.1-.1l-.1-.2v-.1l-.1-.2-.1-.2v-.2-.1l-.1-.2v-.2l-.2-.1-.1-.2v-.2-.2L20 89v-.1h-.2l-.1-.1-.2-.1-.2-.1h-.1v-.1H19v-.1h-.2l-.2-.2h-.1l-.1-.1h-.1L18 88l-.1-.1h-.2v-.1a1.8 1.8 0 01-.2 0l-.1-.1-.2-.1h-.1v-.1H17l-.1-.2h-.1-.2v-.1h-.1-.1l-.1-.1H16V87l-.5-.2-.1-.1v-.3.3l-.2-.1h-.1a1.8 1.8 0 00-.2-.1l-.1-.1h-.1a.7.7 0 01-.3-.2l-.2-.1h-.1V86a.6.6 0 01-.4-.2h-.2l-.1-.1h-.1v-.1h-.1-.2v-.1H13a3 3 0 00-.2-.1l-.2-.1-.1-.1V85v.8l-.1.2V90.2l.1.2V92.2l.1.2v1.3c.1 0 0 .1 0 .2v.4l.1.2.1.1v.8l.1.2V95.9l.1.2v.2l.1.2v.5l.1.2v.2c.1 0 0 .1 0 .2l.2.1v1l.2.1V99.4l.2.2v.5l.2.2z" fill="#01866A"/>
  <path d="M12.5 85.2h.1l.2.1a3.4 3.4 0 00.2.1l.1.1h.2a.8.8 0 010 .1h.2v.1h.1l.2.1.2.1h.1v.1a.8.8 0 00.3.1h.1l.1.2h.2l.2.1.1.1h.2l.1.1.2-.2-.1.3h.1l.4.3H16.3v.1h.2v.1h.1l.2.1.2.1.1.1h.2l.2.2h.2v.1l.3.1a.8.8 0 00.3.1l.2.1.1.1.2.1h.1l.1.1h.1v.1h.2l.2.2a2.5 2.5 0 00.1 0 3.3 3.3 0 01.2.1h.1l.1.1.1.2v.4l.2.2.1.1v.1l.1.3v.1l.1.2.1.2V91l.1.2.1.2v.4l.2.1v.2l.1.2v.2l.2.1v.2a.6.6 0 000 .3l.1.1V93.5l.2.2v.4l.2.1a.5.5 0 000 .3v.3l.2.1v.2l.1.2V95.6c0 .2.2.2.2.2v.2l.1.2a.5.5 0 00.1.3V96.8h.1V97.2h.1V97.5l.1.2a.4.4 0 00.2.3H22.7l-.2-.1-.1-.1h-.2v-.1h-.1l-.1-.1H22l-.1-.1h-.1l-.1-.1h-.1l-.1-.1h-.1l-.1-.1h-.1V97H21l-.2-.1a1.7 1.7 0 00-.2-.2h-.1l-.2-.1h-.2v-.1H20l-.1-.1h-.1l-.1-.1-.6-.3H19l-.2-.1a1.5 1.5 0 00-.2-.2h-.1l-.2-.1h-.1a.3.3 0 01-.1 0 .6.6 0 00-.3-.2.8.8 0 00-.3-.2l-.1.2v-.2-.1h-.2L17 95h-.2v-.1h-.2v-.1l-.6-.3H16l-.2-.1-.1-.1h-.2v-.1h-.2V94h-.1L15 94H15a2 2 0 01-.2-.1 1 1 0 00-.3-.2h-.1l-.2-.1-.2-.1-.2-.1-.1-.1h-.1-.1l-.1-.1-.2-.2H13 13l-.2-.1a.8.8 0 00-.2-.1v.6h.2l.2.1v.1h.2l.2.1h.1l.1.1.2.1.2.1.2.1.2.1h.1l.1.1.2.1h.1l.1.1h.1v.1h.2v.1h.1l.2.1a1.2 1.2 0 00.2.1l.1.1.5.2h.1v.1h.2l.1.1a3.2 3.2 0 00.3.2h.1l.2.1.2.1h.1a.2.2 0 010 .1h.2l.1.1h.1l.1.1h.1l.1.1.2.1h.1v.1h.2l.5.3h.1v.1h.1l.1.1h.2l.2.1.1.1h.1l.1.1.2.1.1.1h.2l.1.1h.1l.1.1.2.1h.1l.1.1h.1v.1h.2v.1a3 3 0 01.3.1h.1v.1h.2v.1h.2l.1.1a3 3 0 01.2.1l.2.1.2.2v.2l.2.1v.2a1 1 0 010 .2v.1l.1.3v.1l.1.2v.1l.2.2a.3.3 0 000 .4l.1.2.2.2V101.7h.1v.4l.1.1v.2l.1.1.1.3V103l.2.2a.4.4 0 00.1.4v.3l.2.2V104.4l.1.2.1.1a.3.3 0 00.2.5v.2a.4.4 0 00.2.5V106.2a.4.4 0 00.2.3v.2h.3-.3v.2l.2.2v.2l.1.2v.1l.1.1h-.2a.8.8 0 00-.3-.2h-.1-.1v-.1a.6.6 0 00-.3-.1l-.2-.1-.2-.1-.1-.1h-.2v-.1h-.2v-.1h-.1l-.2-.1-.2-.1-.1-.1h-.1v-.1h-.2l-.2-.1-.1-.1h-.1l-.3-.2h-.2v-.1h-.2v-.1h-.1l-.2-.1h-.1v-.1l-.2-.1a1.2 1.2 0 00-.3-.2h-.2-.1l-.1-.1h-.1v-.1l-.2-.1h-.2v-.1h-.2l-.1-.1h-.1l-.1-.1-.2-.1a.7.7 0 00-.3-.2h-.2v-.1h-.1l-.1-.1h-.1-.1v-.1h-.2l-.1-.1h-.1v-.1h-.2v-.1h-.1l-.2-.1-.2-.1a.8.8 0 00-.3-.2h-.2v-.1l-.3-.1-.2-.1H17l-.1-.1h-.1v-.1h-.2v-.1a1.2 1.2 0 00-.3-.1l-.2-.1H16v-.1a.6.6 0 00-.4-.1l-.1-.2h-.2l-.2-.1a14.9 14.9 0 00-.1-.1h-.1l-.2-.1-.2-.1v.2l.1.2.1.2.1.1h.1l.2.1h.1l.2.2h.2l.1.2h.2l.1-.2V103.1h.2v.1h.1a1.3 1.3 0 00.2.1l.1.1h.1l.2.1.2.1.2.2h.3l.1.1.2.1.2.1h.1v.1h.2v.1h.2a2 2 0 01.1.2h.2l.1.1a1.2 1.2 0 00.2 0l.1.1h.1v.1a.7.7 0 00.3.1h.1l.1.1.2.1.1.1h.2v.1h.2v.1h.1l.2.1h.1v.1h.1l.1.1h.2l.1.1h.1l.1.1.2.1h.1v.1h.2l.1.1h.1l.2.2h.1l.4.2.1.1h.2a1.8 1.8 0 00.2.2h.2l.1.1.2.1h.1v.1h.2v.1h.2l.2.1.1.1.2.1.1.1h.2l.2.2h.1l.2.1.2.1h.5l.4-.4v-.1V107.3l-.2-.2v-.2l-.2-.2v-.3l-.1-.2v-.2l-.1-.1a.4.4 0 00-.1-.4v-.2l-.1-.1v-.3l-.2-.1v-.2-.2h-.1v-.3l-.2-.2v-.1-.2-.1l-.1-.1-.1-.2v-.2l-.1-.1v-.2a.5.5 0 00-.2-.4v-.1-.2H25v-.1-.3h-.1v-.2-.1l-.1-.2-.1-.2v-.2l-.2-.2v-.1l-.2-.2V99.8l-.1-.2v-.2-.2L24 99V99l-.1-.2v-.1-.2-.2h.1v-.1-.1l.1-.1.1-.2.1-.1.1-.3.1-.2.1-.1V97l.1-.2v-.1h.1v-.2h.1a.7.7 0 00.1-.3l.1-.2.1-.2v-.1h.1l.1-.2v-.2h.1v-.1l.1-.2.1-.2.1-.1v-.2h.1v-.2l.2-.2V94l.1-.2v-.1h.1v-.1-.1-.2-.2-.2l.1-.2v-.1-.2l-.1.2-.1.1-.1.2v.1l-.1.2-.1.1a1.6 1.6 0 00-.1.3 1.2 1.2 0 00-.2.3v.2h-.1a1 1 0 00-.1.3 1.2 1.2 0 00-.1.2l-.1.2v.1l-.1.1v.1l-.2.2v.1l-.1.2-.1.2a1 1 0 00-.2.3v.2h-.1a1 1 0 00-.1.2v.2h-.1v.2l-.1.2-.1.1-.1.3-.1.1-.1.2-.1.1h-.1v-.1l-.1-.2v-.2l-.2-.1V97v-.2l-.1-.2v-.1-.3l-.2-.1V96v-.2l-.1-.2-.2-.1v-.2a.5.5 0 000-.3l-.1-.2v-.2-.2l-.2-.2v-.1l-.1-.2v-.2-.2l-.2-.2v-.1H22V93l-.1-.1v-.2h-.3.3a.5.5 0 00-.2-.4V92 92h-.1v-.1l-.1-.2v-.2-.1h-.1V91l-.1-.2v-.1l-.1-.3-.1-.1v-.2-.2l-.1-.2v-.1h-.1l-.1-.2-.1-.2v-.1-.2-.2-.1h.1v-.2l.1-.1v-.1l.2-.2V88l.2-.4v-.1l.1-.2.1-.1V87a.7.7 0 01.2-.1v-.1a.8.8 0 00.2-.3v-.1-.1h.1V86l.1-.1.1-.2v-.1h.1v-.1l.1-.2v-.1l.2-.2v-.2l.1-.1.1-.2v-.2l.2-.1a1.1 1.1 0 00.1-.3v-.1l.1-.1v-.1l.1-.1v-.1l.2-.2V83l.1-.2.1-.1v-.1l.1-.1v-.1l.1-.1v-.1l.1-.1V82a.9.9 0 00.2-.3 4.6 4.6 0 000-.2l.1-.1v-.1-.1a52 52 0 00-.3-.3l-.1.2v.1l-.1.1v.1l-.1.2-.1.2v.1l-.1.1v.1l-.1.1v.1a1.3 1.3 0 00-.2.2v.1l-.1.2v.1l.1.2-.2-.1v.1l-.1.1-.1.2v.1l-.1.1v.1h-.1v.1l-.1.1v.2l-.1.1v.1a1 1 0 00-.2.3v.1l-.1.1-.1.1v.2h-.1v.2l-.1.2a.6.6 0 00-.2.3v.2h-.1a.8.8 0 00-.1.2v.1l-.1.1v.1l-.1.1v.1H21a2.8 2.8 0 000 .3H21v.1l-.1.1v.1l-.2.3-.1.2-.1.2v.1l-.1-.2h-.1v-.3-.1h-.1l-.1-.3H20V87l-.1-.1v-.2l-.1-.2v-.2l-.1-.2V86l-.1-.2-.2-.2v-.4l-.1-.1v-.2l-.2-.1v-.1-.3-.1L19 84v-.3l-.1-.1-.2-.2v-.2l-.1-.1V83l-.1-.2v-.1a.4.4 0 00-.1-.4V82l-.2-.2v-.1l-.1-.2a2.6 2.6 0 000-.2v-.2l-.2-.2v-.3l-.1-.2v-.2-.2-.1-.1l.1-.2.1-.2.1-.1.1-.2.1-.2v-.1l.1-.1.1-.2v-.2h.1v-.1-.1h.1V78h.1v-.1l.1-.1v-.1l.1-.2.1-.1v-.2h.1V77h.1a2.9 2.9 0 01.1-.2l.1-.2v-.1h.1v-.1l-.4-.3a.7.7 0 00-.2.3v.1a1.3 1.3 0 00-.1.2v.1a.6.6 0 00-.2.3v.1a2.7 2.7 0 00-.2.2v.2a.4.4 0 01-.1.1v.1h-.1v.2h-.1v.2l-.1.1v.1H18v.2l-.1.1v.1l-.1.1v.1l-.1.2-.1.1-.1.2c0-.2-.1-.2-.2-.2v-.1l-.1-.3v-.3l-.1-.2v-.2l-.2-.1v-.2l-.2-.2a1.3 1.3 0 000-.2v-.1-.2a.7.7 0 00-.1-.3.5.5 0 00-.2-.4v-.2l-.2-.2V76v-.2a.4.4 0 00-.2-.4v-.2-.1-.2l-.2-.2v-.1-.2l-.2-.2V74v-.2l-.2-.1v-.2-.1l-.1-.2V73l-.1-.2H15l-.2-.3v.1a18 18 0 00-.2.4h.1v.2l.1.1v.1l.1.2v.2l.1.2.1.2v.2h.1v.3l.1.2.1.1v.2l.1.2a.4.4 0 00.1.4v.2l.1.1v.2l.2.2a.5.5 0 00.1.3v.2l.1.1v.5a1.2 1.2 0 00.1.2c0 .2.1.2.2.2v.2c0 .2 0 .2.2.3v.6l.2.2v.2l-.2-.1-.2-.1-.2-.1H16l-.2-.2h-.2l-.1-.1h-.2v-.1l-.1-.1h-.1-.1a1.5 1.5 0 00-.2-.2h-.1l-.2-.1-.2-.1h-.1l-.1-.1h-.1l-.2-.1-.1-.1h-.1l-.1-.1h-.1l-.1.3v.1l.1.1.2.1h.2v.1h.1v.1h.2l.2.1.1.1h.1v.1h.2l.1.1h.1l.2.2h.2l.1.1.2.1h.1l.2.1.2.1.1.1.2.1h.1v.1h.2l.2.1.1.2.2.2V81.1l.1.1.1.2v.2l.1.1v.2l.1.2.1.1v.3l.2.1v.6l.1.1.1.2v.2l.2.2v.3l.1.1v.2h.1v.4l.2.2v.2l.1.1v.4l.2.2v.1l.1.2v.1a.4.4 0 00.2.4V87.4l.2.1.1.2v.4l.2.2h-.1l-.1-.1h-.2V88h-.1l-.1-.1a1.3 1.3 0 00-.3-.1l-.2-.1-.1-.1-.2-.1h-.1-.1l-.1-.2H18l-.1-.1h-.2l-.2-.2a1.5 1.5 0 01-.1 0h-.1l-.1-.2H17l-.2-.1h-.1v-.1h-.2l-.1-.1-.1-.1-.4-.2-.2-.1h-.1l-.2-.1h-.1l-.1-.1a1.4 1.4 0 00-.3-.2l-.2-.1h-.1-.1a.7.7 0 00-.3-.2l-.2-.1-.1-.1h-.1l-.2-.1-.2-.1h-.1V85H13v-.1h-.2v-.1h-.2v-.1a1 1 0 00-.1 0l-.1.4zm11 12.7h.1l-.2.1h.2zm-1-2.7l-.3.1.2-.1zM27.3 107v.2h-.1v.1l-.1.1a.9.9 0 000 .2v-.3h.2v-.1-.1zM21.7 113.5h-.1l-.2-.1-.1-.1h-.1l-.1-.1a1.6 1.6 0 00-.2-.1l-.4-.2h-.1l-.1-.1-.2-.1h-.2l.6.8h.1a1.6 1.6 0 00.2.1h.1v.1h.2l.1.1h.1l.1.1.2-.1.2-.3h-.1z" fill="#024F3F"/>
  <path d="M27.2 85.3V86l-.1.2v.5l-.1.2V87.4l-.1.1v.4l-.1.2v1.1l-.1.2v1.3l-.1.2V91.8c-.1 0 0 .1 0 .2l-.1.2V95.2l-.1.2V98.3c.1.1 0 .2 0 .2v.2l.1.2v1.3l.1.2v.5l.1.2v1l.1.1v.8l.1.2v.7l.1.2V104.7l.1.1.1-.2v-.2-.2l-.1-.2v-.2-.2-.1-.2l.1-.2v-.2l-.1-.2v-.2-.2-.2l.1-.1-.1-.2.1-.2v-.2-.2-.2-.2-.2-.1-.2-.2-.2-.2-.2-.2l.1-.1.1-.2s-.1-.2 0-.2v-.2-.2-.2-.2-.2h.1v-.1-.1-.1l.1-.2-.1-.2.1-.2v-.1-.2l.1-.2v-.2l.1-.2v-.2-.1-.2l.1-.2v-.2-.2l.1-.2.2-.1s-.1-.2 0-.2v-.2-.2-.2l.1-.1.1-.2v-.2l.1-.2V93v-.2l.1-.1v-.2l.2-.2V92 92v-.2-.2l.2-.2v-.2l.1-.1v-.2l.1-.2.1-.2v-.1-.2l.1-.2.1-.2.1-.1v-.2-.2l.1-.2v-.2l-.5-.8-.1-.1-.2-.4-.1-.1v-.2a49.6 49.6 0 00-.6-.7v-.2l-.3-.3-.1-.2-.2-.2-.2-.4-.1-.1-.1.2z" fill="#000"/>
  <path d="M47 97.8zM43.5 77v-.1.1zM37.2 76zM45.6 83.5zM40.8 71.7zM47 96.5zM47 97.4v.1zM47 97zM47 98.3v-.1-.2l-.1.4zM45.4 83.9l-.1.1-.2.1v.1H45l-.2.2a1 1 0 00-.2.1l-.2.2h-.1v.1H44v.1a.6.6 0 01-.3.2l-.2.2h-.1l-.2.2h-.1l-.1.2-.2.1-.2.1v.1h-.1l-.2.2h-.1l-.1.2H42l-.1.1h-.1v.1l-.2.1-.1.1-.2.1a1.7 1.7 0 01-.2.2H41v.1a.9.9 0 01-.3.2h-.1l-.1.1-.1.1-.2.1-.1.1-.2.2-.2.2h-.2l-.1.2h-.2v.1l-.1.1H39l-.1.1-.2.2v.2l-.1.1V90.1l-.1.3v.5a.8.8 0 01-.1.3V91.6l-.1.1v.4a.5.5 0 010 .4v.2l-.1.1-.1.2v1l-.1.1V94.6l-.1.2v.2l-.1.2V95.5l-.1.2V96.6l-.2.2a.8.8 0 010 .3V97.7l-.1.2V98.2h.1l.2-.1.2-.1.3-.3.2-.1.1-.1.1-.1.2-.2h.1l.2-.1V97l.2-.1.1-.1.2-.1v-.1l.2-.1a2 2 0 00.2-.1v-.1h.1a.8.8 0 01.3-.3h.1v-.1h.1l.1-.1h.1v-.1l.4-.3h.1l.2-.2h.1a1.3 1.3 0 01.2-.2l.1-.1.2-.1.1-.1.1-.1.2-.1.1-.1.1-.1h.1l.1-.1a1 1 0 00.1-.1l.1-.1h.1v-.1l.2-.1.2-.2h.1l.1-.2h.2v-.1a1 1 0 01.3-.2l.2-.1a.6.6 0 01.2-.2 1.4 1.4 0 01.2-.2 1.5 1.5 0 00.2-.1h.1v-.1l.2-.1.1-.1.1-.1.2-.1.2-.1a.8.8 0 01.2-.2l.1-.1h.1l.1-.2h.1l.1-.1V91v-.2-.2-.2-.2l-.1-.1V90l-.1-.2v-.2l.1-.2-.2-.2V89s.2-.1.1-.2v-.1l-.1-.2v-.2l-.1-.2V88v-.2-.1-.2-.4l-.2-.2v-.2l-.1-.1v-.2-.2c-.1 0 0-.1 0-.2v-.2l-.2-.1v-.2-.2-.2l-.2-.2v-.2-.1-.2-.2l-.2-.2v-.1.1zM37.4 75.7l.1.1.1.1v.2h.1l.2.1v.1l.1.2.1.1v.1h.1v.1h.1l.1.2.1.1.1.2.1.1.2.2v.1l.1.1a2 2 0 00.2.2l.1.2a2.1 2.1 0 01.1.1v.1h.1l.1.2v.1h.1v-.2-.2-.1c0-.2.1-.2.2-.3v-.1a1 1 0 000-.1.4.4 0 010-.5V77a1.2 1.2 0 010-.1v-.2l.1-.2v-.1-.1-.2l.2-.1v-.2-.2-.2-.1-.3-.2-.1l.1-.2v-.2l.1-.2v-.2-.2-.2-.1l.2-.2V73v-.2-.2a1.3 1.3 0 010-.2v-.1-.2-.2l-.2.2v.2l-.1.2H40l-.1.2-.2.1v.2l-.2.1v.2l-.2.1-.2.1v.2l-.2.1-.1.2-.1.1-.2.1-.1.2h-.2v.3H38v.2l-.2.2-.1.1-.1.2-.1.1-.2.1v.1zM43.4 77.2l-.1.2h-.1l-.1.1H43l-.1.2h-.1l-.1.1h-.1v.1l-.2.1a.7.7 0 01-.3.2l-.1.1-.1.1h-.1l-.2.2-.1.1-.2.1-.3.3h-.1l-.1.1-.2.1-.2.2a1.6 1.6 0 01-.1.1l-.2.1V80.3l-.2.2v1a.4.4 0 01-.1.4v.4l-.2.2v.1a1 1 0 010 .2.4.4 0 010 .3V84l-.1.2-.1.2v.7l-.1.3v.3a.7.7 0 010 .3v.2l-.1.2a.3.3 0 01-.1.4.4.4 0 010 .3V87.6l-.1.2V88l.1-.1h.1v-.1h.2v-.1l.3-.2.2-.2h.1l.1-.2h.1l.1-.1h.1V87h.2v-.1l.2-.2h.1l.1-.1h.1l.1-.2h.2l.1-.2h.1V86h.1a.7.7 0 01.2-.2h.1l.1-.2h.2v-.1h.1v-.1h.2l.1-.2h.1v-.1h.1l.1-.1.1-.1.2-.2h.2l.1-.2.2.2-.2-.2.2-.1a1.2 1.2 0 01.1-.1h.1v-.1h.2a.7.7 0 000-.2h.2V84a.6.6 0 00.2 0v-.2h.2c0-.1 0-.2.2-.2l.1-.1.1-.1.2-.1.1-.1-.1-.2v-.2l-.2-.1v-.2-.2l-.1-.2V82v-.1l-.2-.2v-.2-.1-.2l-.2-.2v-.2-.2-.2l-.2-.1V80l-.1-.2v-.1l-.1-.2v-.2-.2L44 79v-.2l-.1-.2v-.2l-.1-.2v-.1l-.1-.2-.1-.2-.1-.1v-.2l-.1-.2zM33.7 81.6v.1l.4.5.1.1.1.1v.1h.1v.1l.2.1v.2l.2.1v.1l.1.1a.7.7 0 01.2.3l.1.1v.1h.1v.2h.1a2.3 2.3 0 01.1.2.7.7 0 01.2.2l.2.3.2.2.1.1v.1l.1.1.1.1.2.2v.1l.1.1.1.2.2.2.1.1a2.4 2.4 0 00.1.2l.1.1.1.1.2.2v.1l.1.2a1.9 1.9 0 00.2.2l.1.1a1.2 1.2 0 01.1.2 1.3 1.3 0 01.1.1l.1.1a2.5 2.5 0 00.1.2v-.2l.2-.2v-.1s-.1-.1 0-.2a.5.5 0 010-.4v-.2-.2-.2l.1-.2V86v-.2h.3-.2v-.1-.3-.2-.1-.2-.2-.2-.1l.2-.3v-.1-.2l.1-.2v-.1-.3-.2-.2-.2-.1l.1-.2V82v-.2l.1-.2v-.1-.2-.2-.1l.1-.3v-.2-.1c0-.2.1-.2.2-.3V80v-.1-.3-.2-.1h-.2V79a2 2 0 00-.2-.2v-.1l-.2-.1v-.2h-.1l-.1-.2-.1-.1-.1-.1-.1-.2-.2-.2v-.1l-.2-.1v-.1l-.1-.1-.1-.2-.1-.1h-.1v-.2h-.1v-.1l-.1-.1-.2-.2v-.1l-.1-.1h-.3v.2l-.2.1v.3h-.1l-.2.2v.2h-.2l-.2.2v.3l-.2.3v.1l-.2.1-.2.1v.2l-.2.2v.2l-.1.1-.2.1v.2l-.1.2-.1.1-.1.2-.1.1-.1.2-.1.2H34v.2l-.2.2v.2l-.2.1v.4h-.1v.1zM37.4 95.3h.2-.2zM41.2 72v.7l-.2.2V73.6l-.1.2v.2a.4.4 0 010 .4v.2l-.1.1v.2l-.1.2V76l-.1.2a.9.9 0 010 .3l-.1.3v.1l-.1.1a.4.4 0 010 .5v.5c0 .2-.1.2-.2.3v.7h.1l.1-.1.1-.1.2-.1.3-.3.2-.1.1-.1.2-.1.1-.2h.1l.2-.1.2-.2h.1a1.2 1.2 0 01.2-.2l.1-.1.2-.1.1-.1.1-.1h.1l.1-.2h.1l.1-.1v-.2l-.1-.2v-.1L43 76v-.2l-.1-.2h-.1v-.3-.2l-.2-.1-.2-.2v-.2-.1l-.1-.2v-.2L42 74v-.2-.2l-.2-.2v-.1l-.2-.2V73l-.1-.2-.2-.2s.1-.1 0-.2h-.1V72l-.1-.2zM46.8 92a.8.8 0 01-.3.1l-.1.2h-.2v.2H46 46h-.1v.1l-.1.1-.2.1a1.7 1.7 0 01-.2.2l-.2.1-.2.1-.1.2a1 1 0 01-.3.2h-.1v.1h-.1l-.1.1-.2.1-.1.2h-.2l-.1.2h-.1v.1h-.1a1 1 0 01-.2.2 1.8 1.8 0 00-.2.1l-.1.1-.2.1-.1.1h-.1l-.1.2h-.2v.1l-.1.1H42v.1l-.2.1-.2.2h-.1l-.3.3h-.1v.1l-.2.1-.2.1v.1h-.1a.8.8 0 01-.2.2l-.2.1-.2.2-.1.1h-.1v.1h-.2a.7.7 0 00-.1.2.8.8 0 01-.2.1l-.2.1-.1.2H39h-.1v.1l-.1.1h-.1v.1l-.4.2v.1h-.1l-.2.1v.1h-.1l-.2.2-.1.1-.2.1v.7l-.1.2-.1.2V100.4H37v.1a.4.4 0 010 .5v.2h.1l.1-.1.1-.1.2-.1.2-.1h.1l.2-.2.1-.1h.2l.2-.2.1-.1h.2l.1-.2h.2l.2-.2h.1l.2-.2h.2l.1-.2h.2l.1-.1.2-.1.2-.1h.1l.2-.2h.2l.1-.2h.2l.1-.1.2-.1.2-.1.2-.1.1-.1.2-.1h.1l.2-.2h.2l.1-.1h.2l.2-.2h.1l.2-.1.2-.1.1-.1h.2l.2-.2h.1l.2-.1.2-.1.1-.1h.2l.2-.1.2-.1h.1l.2-.2h.2l.2-.1h.1l.2-.2h.2l.1-.1v-.3-.2-.1-.2-.2-.2-.2-.2-.2-.1-.2-.2-.2-.2-.2-.2-.2-.1l-.1-.2v-.2-.2-.1zM27.5 97.7v-.1zM31.6 103.8v-.1a2 2 0 01-.2-.2l-.1-.1v-.1l-.2-.1v-.1l-.2-.2v-.1-.1h-.1l-.1-.1-.1-.2-.1-.1v-.1h-.1v-.1l-.2-.1v-.2H30v-.1l-.2-.1v-.2c-.1 0-.2 0-.2-.2h-.1v-.1l-.1-.1-.2-.2v-.1l-.1-.1-.2-.2v-.2h-.1l-.1-.1-.1-.1-.1-.2a1.2 1.2 0 01-.1-.2l-.2-.1v-.2l-.2-.1V99a.6.6 0 01-.3-.3l-.1-.1-.1-.1-.1-.2V98l-.2.2V98.8l.1.2-.1.2V100.3l-.2.2V100.8l.1.2V101.6l-.1.2.1.2-.2.1.1.2V103l.1.2v.2l-.1.2V104.4l.1.2v.2l-.1-.1v-.2-.2-.2l-.1-.2v-.2-.2-.1l-.1-.2v-.2-.2-.2l-.1-.2v-.2-.1-.2-.2l-.1-.2v-.2-.2-.2-.1l-.1-.2v-.2-.2-.2-.2-.2-.1-.2l-.1-.2v-.2-.2-.2-.2-.2V97.8v-.2-.2-.2l-.1-.2v-.2-.1-.2-.2-.2-.2-.2-.2-.2-.1-.2-.2-.2-.2-.2-.2-.1-.2-.2V93.9l-.1.1-.1.2-.1.2v.1a.6.6 0 00-.1.1v.2h-.1a1.3 1.3 0 01-.1.3l-.1.2-.1.1-.1.2v.1h-.1v.2l-.1.1v.1l-.1.1v.1a.7.7 0 01-.2.3v.1a.6.6 0 00-.1.1v.1l-.1.1v.1l-.1.2-.1.1v.1l-.2.3v.1l-.1.2h-.1v.2l-.1.1v.1l-.1.1v.6l.1.2v.2c.1.1.1.2 0 .2l.1.1v.3h.1a.4.4 0 01.2.4l.1.2v.2l.2.2a1 1 0 010 .3v.1l.1.1v.4h.1v.2l.1.1.1.2v.2a.5.5 0 010 .2.4.4 0 01.2.3l.1.2v.4h.1l.2.3V104.4l.1.2v.2l.2.1V105.5c.1 0 .2 0 .2.2V106l.1.2.1.2v.2a.4.4 0 01.2.5l.1.2v.1l.1.2h.1v-.2h.1v-.2h.1v-.1.1l.4-.2.4-.3.3-.3.4-.2.4-.4.4-.2.3-.4c.2 0 .3-.2.4-.3l.4-.2.4-.3.4-.3.3-.2z" fill="#01866A"/>
  <path d="M29.7 89v.4c-.1 0 0 .1 0 .2l-.2.1v.2l-.1.2V90.4l-.2.2v.4l-.2.1v.2l-.1.2v.4l-.2.1V92.6l-.2.1v.4l-.1.2v.4l-.1.1v.2l-.2.2v.5l-.1.2-.1.2V96l-.1.2v.2l-.2.2V96.9l-.1.2.1.2v.2l.1.3.2.2v.1l.1.1h.1l.1.2v.2l.2.1v.1h.1a.6.6 0 01.2.3l.2.2v.1l.1.2h.1v.1h.1a.6.6 0 01.2.3l.2.3.1.2.2.1v.1l.1.2c.1 0 .2 0 .2.2l.1.1v.1h.1v.2h.1l.1.2.2.1v.2h.1v.1l.2.1.1.2.1.1.1.2.1.2h.2v.2l.1.1v.1h.1l.1.2h.1v.2h.1l.4-.3c.2 0 .3 0 .5-.2l.4-.2.4-.2.4-.3c.2 0 .3 0 .5-.2.1 0 .3 0 .4-.2l.4-.2.4-.2.5-.2v-.2-.2-.2l.1-.2v-.1-.2-.1-.2c0-.2.1-.3.2-.3V99.5v-.2V99v-.3-.1l-.1-.2a3.7 3.7 0 00-.3-.2V98 98h-.1v-.2h-.1l-.2-.2v-.1l-.1-.1-.1-.2h-.1l-.1-.2-.1-.1v-.1h-.1a1.4 1.4 0 00-.1-.2l-.2-.2-.1-.2-.1-.1V96l-.1-.1-.2-.2-.1-.1v-.1h-.1v-.1l-.1-.1-.2-.2-.2-.3v-.1h-.1v-.2a1.1 1.1 0 01-.2-.1v-.1h-.1V94h-.1a.7.7 0 01-.2-.3.7.7 0 01-.2-.3.6.6 0 01-.3-.3l-.1-.1V93h-.1v-.2h-.1v-.1h-.1l-.4-.5V92l-.1-.2h-.1l-.1-.2-.1-.1v-.1h-.1v-.1l-.1-.1-.1-.2H31a2 2 0 00-.1-.2 2.3 2.3 0 00-.2-.2l-.1-.1-.1-.2v-.1h-.1l-.1-.2-.1-.1v-.1h-.1v-.1a.6.6 0 01-.3-.3v-.1l-.2-.2a45.2 45.2 0 01.4-.3l.1.2.2.1v.2l.2.1v.2h.1l.2.2v.1a2.3 2.3 0 00.2.2v.1h.1v.1l.2.1v.1a1.1 1.1 0 00.1.2 1.4 1.4 0 00.1 0v.2h.1l.1.1v.1l.1.1.1.1v.1h.1v.2h.1l.1.1.4.5v.2h.1a2 2 0 00.2.2l.1.2.1.1.1.2.1.1a.7.7 0 01.3.3v.2h.1v.1l.2.1a2.3 2.3 0 01.1.2.7.7 0 01.2.3l.2.2v.1l.2.2v.1l.2.1v.2l.2.1.1.1.1.2v.1h.1l.1.2.2.2a1.8 1.8 0 00.1.1l.1.2.1.1.1.2h.1v.1l.1.1a2.2 2.2 0 00.2.2v.2h.1v.1h.1v.1l.2.2.1-.3v-.2-.1a.8.8 0 01.1-.4v-.2l.1-.2v-.2-.1l.1-.2v-.2-.2-.2-.1-.2l.1-.2v-.2l.1-.2v-.2-.1-.2l.1-.2v-.2-.2-.1-.2-.2l.2-.2v-.2-.2-.2-.2-.1-.2l.1-.2v-.2-.1h.1V91v-.2-.2-.1-.2l.2-.2V90v-.2a2.3 2.3 0 010-.1v-.1-.2-.2-.2l.1-.2a.4.4 0 010-.3l-.2-.1a1.6 1.6 0 010-.2H38V88l-.2-.2a1.2 1.2 0 01-.1-.1v-.1l-.1-.1-.1-.1v-.1h-.1l-.1-.2-.1-.1V87l-.2-.1v-.1l-.1-.2-.1-.1-.1-.1-.1-.1-.1-.2h-.1V86l-.1-.1-.1-.2-.2-.1v-.1-.1l-.2-.1-.1-.2-.1-.1v-.1l-.3-.2v-.2l.2-.1-.2.1-.2-.1a1.2 1.2 0 010-.2H35V84l-.1-.1-.1-.1a.7.7 0 01-.2-.2v-.1a.7.7 0 01-.2-.2.6.6 0 01-.2-.4H34v-.2l-.2-.2-.1-.1-.3-.5h-.1v-.1-.2l-.2.3V82.3l-.2.2-.1.1-.1.2v.2l-.1.1-.2.2v.1l-.2.2v.2l-.1.1v.2l-.2.2v.1l-.1.2-.1.2-.1.1v.2l-.2.2v.1l-.1.2v.2l-.3.1V86.5l-.2.1-.1.2v.2c-.1 0 0 .1 0 .2l-.2.1v.2l-.2.1v.2l-.1.2v.4l-.2.1v.2l-.1.2h-.1-.1a37.6 37.6 0 010 .1z" fill="#01866A"/>
  <path d="M33.3 81.9v.1l.4.5.1.1.1.2.1.1.1.1.1.2.1.1a.7.7 0 00.3.3v.2h.2v.1l.1.2a1 1 0 00.2.2 1.1 1.1 0 00.1.2l.3-.1-.2.1v.2l.2.2.2.2v.1h.1v.1l.1.1.1.2h.2V86h.2v.2l.2.2.1.1v.1h.1v.1l.1.1.1.2h.1v.1l.2.2v.1a2.2 2.2 0 00.3.3l.1.2.1.1.1.2.1.1.1.2h.1l.1.1v.5a.4.4 0 00-.1.4v.7l-.1.2v.7H38V91.4l-.1.3v.5a.5.5 0 000 .4l-.1.2-.1.2v.5c-.1.1 0 .2 0 .2v.2a.5.5 0 00-.1.4.5.5 0 000 .3l-.2.2V95.4l-.1.2V96.2l-.1.1v.6l-.1.2V97.4c-.1.1 0 .2 0 .2a.4.4 0 00-.1.4l-.1-.1-.1-.2a1.9 1.9 0 00-.2-.1 1.2 1.2 0 00-.1-.2l-.1-.2-.2-.2v-.1l-.2-.1v-.1l-.1-.1v-.1h-.1v-.2h-.1l-.1-.1V96a2.5 2.5 0 00-.2-.2l-.1-.1v-.1h-.1v-.2H35v-.1l-.1-.1v-.1a1 1 0 00-.2-.2l-.2-.2-.2-.3v-.1l-.2-.2-.1-.1-.1-.2a2 2 0 00-.2-.2l-.1-.2-.1-.1a.7.7 0 00-.3-.3v-.2l-.2-.1v-.1l-.1-.1-.1-.1v-.1h-.1l-.4-.5v-.2h-.1v-.1a2 2 0 00-.2-.2l-.1-.1a.9.9 0 00-.2-.3l-.1-.1-.1-.1a3.4 3.4 0 00-.1-.2l-.1-.2-.1-.1-.1-.1-.1-.1V90h-.1l-.1-.2-.1-.1-.1-.2-.1-.1-.1-.2-.1-.1-.2-.2a.8.8 0 00-.2-.2l-.2.5.1.2.1.1.1.2h.1v.1l.1.1.2.2v.2h.1v.1l.2.1a1.6 1.6 0 00.1.2l.1.1a1.9 1.9 0 01.1.2 2.3 2.3 0 01.2.1v.1l.1.2h.1v.2h.2v.2h.1v.1l.1.1.1.2.4.4v.1l.1.1v.1h.1l.1.2.1.1.1.2h.1v.1a.7.7 0 00.2.3l.2.1v.1l.1.1v.1h.1v.2h.1a1.1 1.1 0 00.2.3l.1.1.2.2v.1l.2.2v.1h.1v.2h.1v.1l.2.1v.1l.1.1.1.2.1.1.1.1.1.1.1.2h.1l.1.2a.7.7 0 00.2.2v.1l.1.1.1.2h.1v.1l.1.1.1.1v.1h.1v.2h.1v.1h.2v.2a1.7 1.7 0 00.2.2v1.2l-.1.2v.2l-.1.2V100.7a.3.3 0 000 .4l-.1.2v.2l.4-.3h.2v-.2-.2-.2-.2-.1-.2l.2-.2V99.6l.1-.2V99h.2v-.1a2.2 2.2 0 00.3-.2l.1-.2h.2l.1-.2.3-.2h.1V98h.1l.1-.1.1-.1.1-.1h.1l.1-.2a.8.8 0 00.3-.1l.1-.1h.1v-.1h.2V97h.1l.2-.1.1-.1a.9.9 0 00.2-.2h.1l.1-.2h.2l.1-.2.2-.1.3-.2.1-.1.1-.1.1-.1h.1v-.1a1.4 1.4 0 00.3-.2l.2-.1.1-.1.2-.2h.1l.2-.2h.1v-.1h.2v-.2a.7.7 0 01.2 0v-.1l.2-.1.2-.1V94h.1l.2-.2h.1l.1-.1.1-.1h.1l.1-.2.2-.1.2-.1.1-.1.2-.2a1.9 1.9 0 00.1 0l.1-.1.2-.2.2-.1.1-.1h.1v-.1l.2-.1.2-.2h.1v-.1h.1v-.6h-.2v.1a1.3 1.3 0 00-.3.2l-.2.1v.1H46l-.1.1-.1.1h-.1v.1a.8.8 0 00-.3.2h-.1v.1l-.2.1a1.6 1.6 0 01-.1.1H45l-.1.2a.6.6 0 00-.3.2h-.1v.1h-.1l-.1.1h-.1v.1H44v.1l-.2.1-.1.1-.2.2h-.1v.1h-.2v.2H43 43v.1l-.2.1h-.1v.1h-.1l-.2.2-.2.2H42v.2h-.1-.1v.1h-.2v.1l-.1.1h-.1l-.1.1-.3.3h-.2v.2h-.1-.1v.1l-.2.1-.1.1-.1.1H40v.1H40a.6.6 0 00-.3.3h-.1l-.1.1-.1.1h-.2v.1l-.2.1-.1.1-.1.1-.1.1h-.1l-.1.1-.1.2h-.1l-.3.2-.1.1-.2.1v.1h-.2v-.1-.2-.2-.2-.2-.2h.1V97v-.2l.1-.2v-.2-.1l.2-.2v-.3l-.1-.1v-.2a.5.5 0 000-.3l.2-.2v-.2-.2-.2-.2c.1 0 0-.1 0-.2l.1-.1.1-.2v-.3-.1a.8.8 0 000-.3v-.3a.5.5 0 00.1-.3v-.2-.2-.2c.1 0 0-.1 0-.2l.1-.1v-.2l.1-.2V91v-.1-.1l.1-.3v-.1-.2l.1-.2v-.1-.2-.3-.2-.1l.1-.2.2-.1.1-.1.2-.2.1-.1.2-.1.2-.1.2-.2.1-.1.2-.1.1-.2h.2v-.1l.2-.1.1-.1.1-.1h.1l.1-.1h.1v-.2h.2v-.1h.2l.1-.2a1 1 0 00.3-.2l.2-.1.1-.1.1-.1.1-.1h.1a2.6 2.6 0 00.2-.2l.1-.1.2-.1.1-.1.2-.1.1-.1.1-.1.2-.2h.1l.1-.1.1-.1.2-.1.1-.1h.1v-.1h.1l.1-.1.1-.1h.1l.1-.2h.1l.2-.2a1.2 1.2 0 00.1-.1v-.2-.1-.2h-.1-.2v.1H45l-.1.2-.2.1-.1.1-.1.1-.1.1h-.1l-.1.1-.1.1H44l-.1.1h-.1v.1l-.1.1-.2.1.2.2-.2-.2-.1.1-.1.1h-.1l-.1.2H43l-.2.2h-.2l-.1.2h-.1v.1h-.1a.8.8 0 00-.2.2l-.2.1-.2.2h-.1v.1l-.2.1-.1.1a.6.6 0 00-.3.2 1.8 1.8 0 00-.2.2h-.1l-.1.1-.1.1h-.1v.1h-.2v.2h-.1l-.2.1-.1.1-.1.1-.4.3h-.1v.1H39v.1H39v-.2-.2-.1-.3-.2-.1c.1 0 0-.1 0-.2.1 0 .2 0 .2-.2v-.2-.2-.2-.2-.1-.3c.1 0 .2-.1.2-.3v-.2-.1-.2-.1l.1-.3a.9.9 0 000-.2v-.1l.1-.2v-.1-.1-.3-.3-.2-.1l.1-.2a.4.4 0 000-.4c.1 0 .2 0 .2-.2v-.2-.2-.1-.2a.4.4 0 000-.4v-.1l.2-.2v-.1-.1-.2-.2a.4.4 0 00.2 0v-.2h.1l.2-.1.1-.1.2-.1.1-.1.3-.3h.1l.2-.2.2-.1v-.1h.1l.2-.1a.7.7 0 00.2-.2l.1-.1h.1l.1-.1.2-.2.2-.1.1-.1.2-.1v-.1h.1l.1-.1v-.3l-.1-.1v-.1h-.1a.6.6 0 00-.3.2v.1h-.2v.1h-.1v.1h-.2l-.1.2-.2.1-.1.1-.1.1h-.1l-.1.1-.2.1v.1h-.1l-.2.2-.1.1H41v.1l-.4.2-.1.1-.2.2a1.8 1.8 0 00-.2 0v-.2a2 2 0 000-.1v-.2-.1s.2-.1.2-.3v-.1-.2-.2-.2-.3-.1-.1l.1-.2v-.2l.1-.1v-.1-.2-.2l.1-.1v-.3-.1-.2a.4.4 0 000-.4l.1-.1v-.2l.1-.2V74v-.2-.2-.1l.2-.2V73v-.2-.2-.1-.2-.2-.2-.1a15 15 0 00-.1-.3h-.1a11.6 11.6 0 00-.2.3v.5a1.3 1.3 0 000 .2l-.2.2V73.5l-.1.2V74.4a.4.4 0 00-.1.4l-.1.2V75.6a.5.5 0 000 .3l-.1.2v.4l-.2.2V78l-.2.2v.6l-.2-.2-.1-.2a2.5 2.5 0 00-.2-.2V78l-.1-.1-.1-.2-.1-.1-.1-.1v-.1l-.2-.1v-.1l-.1-.2-.2-.1v-.1l-.1-.1-.1-.2-.1-.1-.1-.2-.2-.1v-.2h-.1a1.2 1.2 0 00-.2-.2l-.1.2h-.1l-.1.2a1 1 0 00.1.2l.1.1.1.1.1.2.2.1v.2h.1v.1l.2.1v.2h.1l.1.2a.7.7 0 00.2.3l.2.1v.2h.1v.1l.1.1.1.1.1.1.1.2.1.1v.1h.1v.1l.1.1.1.1V79.7l.1.3v.2l-.2.2V81a3 3 0 010 .2v.2c-.1 0 0 .1 0 .2v.1l-.1.2v.4c-.1 0-.2 0-.2.2v.7V84H39l-.1.2v.8l-.1.1v.2.4h.2-.2V86l-.2.2V86.8l-.1.2v.4a.4.4 0 000 .5h-.1v-.2l-.2-.1v-.1l-.1-.1a1.1 1.1 0 00-.2-.2V87h-.1V87l-.1-.1v-.1a1 1 0 00-.2-.2l-.2-.2v-.1l-.1-.1-.2-.2-.1-.2a2 2 0 00-.2-.2v-.1l-.1-.1-.2-.1v-.1-.1h-.1v-.2H36v-.1l-.1-.1v-.1l-.2-.2-.1-.2-.1-.1-.1-.1-.1-.1v-.1h-.1v-.2H35v-.1l-.1-.2-.1-.1a.7.7 0 00-.2-.3l-.1-.2h-.1v-.1h-.1a1.7 1.7 0 00-.2-.3l-.1-.1-.3-.5-.1-.1a.9.9 0 00-.2-.2l-.2.3v.2zm4 13.4h.3-.2zM32.1 103.6v-.1l-.2-.1v-.1l-.1-.2a.8.8 0 00-.2-.2l-.1-.1-.1-.1v-.2h-.1v-.1l-.2-.1-.1-.2-.1-.1v-.1h-.1l-.1-.2-.2-.2v-.1h-.1v-.2h-.1v-.1l-.2-.2-.1-.1-.1-.2h-.1v-.1l-.2-.2-.2-.3v-.1l-.2-.1v-.1l-.1-.1-.1-.2a1.3 1.3 0 00-.3-.2V99l-.2-.1v-.2l-.2-.1-.1-.2-.1-.1v-.1H28l-.1-.2a1.2 1.2 0 00-.2-.2l-.2-.2V98.4h.1a1 1 0 00.2.3v.2l.2.1a.7.7 0 00.2.3l.1.2h.1v.1l.2.2a1 1 0 00.1.2l.2.2v.2l.3.2.1.2.1.1.2.2v.1l.2.2.1.1.1.2.1.1.1.2h.1v.1l.1.1a1 1 0 01.1.1v.1h.1a.7.7 0 00.2.3l.1.2.1.1.1.2h.1v.1l.2.2v.1l.1.1.1.1v.1h.2l.4-.2-.1-.1z" fill="#024F3F"/>
  <path d="M46.7 96.1l-.2.1-.1.1h-.2l-.2.1-.2.1-.1.1h-.2l-.2.1h-.2l-.1.2h-.2l-.2.2h-.1l-.2.1-.2.1H44l-.2.2h-.2-.1l-.2.2h-.2l-.1.2h-.2l-.2.1h-.1l-.2.2-.1.1H42l-.2.2h-.2l-.1.1-.2.1-.1.1-.2.1-.2.1h-.1l-.2.2h-.2l-.1.1-.2.1-.1.1-.2.1-.2.1-.1.1-.2.1-.1.1-.2.1h-.2l-.1.2-.2.1h-.2l-.1.2-.2.1h-.1l-.2.2h-.2l-.1.2h-.1.2l.4-.1.5-.2.4-.2.4-.2.5-.2h.5l.4-.2a.7.7 0 01-.2 0 35.2 35.2 0 011.3-.4H41.9l.4-.1.5-.1.5-.1.4-.3h1.4l.5-.2h.5l.5-.1.3-.1v-.2-.4-.1-.2-.2-.2l.1-.3v-.5-.5H47l-.2.1z" fill="#000"/>
  <path d="M97.2 128.2h.7-.7zM98.8 128.2zM111 107l-.2.3-.2.1-.2.2-.2.1-.2.2-.2.1-.2.1v.2l-.3.2-.2.1-.2.2-.2.1-.1.2-.3.1-.1.2-.2.1-.2.2-.1.2-.2.2-.2.1-.2.2-.1.1-.2.2-.2.2-.2.1-.1.2-.2.1-.4.4-.1.1a8 8 0 00-.3.3l-.2.3-.2.2-.1.2-.2.1-.2.2-.1.2a8.7 8.7 0 01-.4.4h-.1c0 .2-.1.2-.2.3l-.1.1a5.6 5.6 0 01-.4.4v.1a1.7 1.7 0 01-.4.5l-.2.1v.2l-.2.2-.2.2.2.3.2.4.2.4.2.4.3.5.2.4.2.4.2.5.2.4.1.4.2.5.1.5.2.4.1.5.2.4.1.5.1.5.1.4.1.5.1.5.1.5v.4l.1.5h.4l.3-.1.3-.1h.2l.1-.1a16 16 0 01.8-.2h.2l.3-.1h.1l.3-.2h.7l.3-.2h.7l.2-.1h.2l.3-.2h.6l.3-.1h.5l.3-.1h.7l.2-.1a6.5 6.5 0 00.5 0h.4l.3-.1h.2a12 12 0 01.8 0h.3a2.7 2.7 0 00.4 0 5.2 5.2 0 01.5 0h.2a25.8 25.8 0 01.7 0h.6a6 6 0 01.6 0h.2l.3.1h.3a1.9 1.9 0 00.4.1h.5l.3.1h.2l.2.1.3.1h.2l.5.2h.3l.1.1h.2a2.8 2.8 0 01.5.2l.3.1h.2l.3.2h.2l.2.2.2.1.2.1.5.2.4.2.2.1.2.1.2.1.3.2.2.1.2.2.3.2.2.2.2.1.4.3h4.4c.1 0 .2-.1.2-.3l.1-.5v-.5-.5-.5-.4-.5l-.2-.5v-.5-.4l-.2-.5-.1-.5-.2-.4v-.5h-.2l-.2-.2-.2-.1-.2-.1-.2-.2-.1-.1a6 6 0 00-.4-.3h-.2l-.3-.2-.2-.2h-.1l-.4-.3-.2-.2h-.2a3.3 3.3 0 00-.4-.3h-.2l-.3-.2-.2-.2h-.2l-.1-.2a1.8 1.8 0 01-.5-.2l-.2-.2-.2-.1-.1-.2h-.2l-.3-.2-.2-.1a7 7 0 00-.8-.5l-.2-.1h-.1l-.3-.2-.4-.2-.3-.2-.1-.1h-.2l-.2-.2-.3-.2h-.1l-.3-.2-.1-.1-.2-.2h-.2a3.2 3.2 0 00-.4-.3 5 5 0 01-.4-.2l-.2-.1-.3-.1-.3-.2v-.1l-.3-.2h-.2l-.1-.1-.3-.2h-.2a5 5 0 01-.5-.5l-.1-.1-.2-.1-.2-.2-.2-.2-.2-.2h-.1l-.3-.3-.2-.2v-.2l-.2-.1-.2-.2-.2-.3-.1-.1-.1-.1-.3-.3v-.1l-.3-.3-.3-.4-.1-.3v-.1l-.2-.2-.2-.3a6 6 0 01-.1-.3v-.1l-.1-.3v-.2l-.2-.2v-.3l-.1-.3v-.2-.2l-.1-.3h.6v.1l.1.3v.4l.2.3a3.2 3.2 0 01.2.6v.1a5.6 5.6 0 00.3.5l.1.2.1.3v.2c.2 0 .2.2.3.3l.2.2.2.2.1.2.2.2.1.2.2.1.1.2.2.2.2.2v.2h.2a1.6 1.6 0 01.5.5l.1.1.2.2h.2l.1.2a7.1 7.1 0 00.6.5h.2a1.7 1.7 0 01.5.3l.1.1.2.2.2.1h.2a2 2 0 01.5.3l.2.1a4.8 4.8 0 00.4.3h.2l.2.2.2.2h.2l.2.2.2.1.2.1a5 5 0 01.6.4l.4.2.2.1a1.3 1.3 0 01.5.3l.1.1h.2l.3.2a11.1 11.1 0 01.4.3h.2l.2.2.2.1.2.2.2.1.2.1.1.1a2 2 0 01.5.3l.2.1.1.1.3.1.2.1.2.2.2.1.2.1.4.3.2.1.2.1.2.1.2.2h.2l.2.2.3.2v.1h.1l.3.9v-.4l-.2-.4-.2-.5-.2-.4v-.5l-.3-.4-.1-.5-.3-.4-.1-.4-.3-.4-.2-.5-.2-.4-.3-.4-.3-.4-.2-.4-.3-.4-.3-.4-.3-.4-.2-.4c-.2 0-.2-.2-.3-.4l-.4-.3-.3-.4-.4-.3-.2-.3-.4-.3c-.1-.2-.3-.2-.4-.3l-.3-.4c-.2 0-.3-.2-.4-.3l-.4-.3-.4-.3-.4-.2-.4-.2-.5-.2-.3-.4-.5-.1-.4-.2-.5-.2-.4-.2-.5-.1-.4-.3h-.5l-.4-.2h-.5l-.5-.2-.4-.1-.5-.2h-.5l-.4-.1h-1l-.5-.1H111.3l-.2.2h-.1z" fill="#0077C8"/>
  <path d="M127.3 128l-.3-.3-.2-.1-.2-.2-.3-.1a6.4 6.4 0 01-.3-.2h-.2l-.4-.3-.4-.2-.3-.1-.2-.1-.2-.1a2.5 2.5 0 00-.4-.2h-.3l-.2-.2h-.2-.2a3.5 3.5 0 01-.7-.3l-.4-.1h-.2l-.3-.1-.3-.1h-.2-.2-.2l-.3-.1a9.6 9.6 0 01-.4-.1h-.3-.2-.2a4 4 0 01-.5-.1h-.2-.3-.9l-.2-.1a12.8 12.8 0 00-1.7 0h-.2a15.8 15.8 0 01-1 .1h-.2-.5-.2l-.2.1a3.4 3.4 0 01-.5 0l-.3.1h-.2-.2l-.2.1h-.3-.2l-.2.1-.3.1h-.2l-.2.1a2 2 0 01-.3 0h-.2l-.2.1-.3.1h-.4l-.2.2h-.3-.2l-.2.1h-.3l-.2.1-.3.1h-.2l-.2.1h-.2l-.2.1-.3.2h-.2v.7l.1.3c.1.3.5.4.3.5h-.8 3.6l.5-.1H127.4v-.1h-.1zM91.3 128l-.5.1H89l-.5.1h-2.8l-.5-.1h-2.2.3l.5.1h8.1l-.5-.1zM95.9 128.2H96.8h-1zM100.9 128.2h.2-.5.3zM101.6 128.2h1.4-1.4zM99.2 128.2zM96.6 110.9l-.3.1.5-.2h-.2zM95.3 111.5H95a51.3 51.3 0 01.2 0zM94.6 111.8h-.2l-.1.2.3-.2z" fill="#0077C8"/>
  <path d="M128 127.6l-.2-.1-.1-.1-.3-.2-.2-.2-.2-.1-.3-.2h-.2l-.2-.2h-.2l-.4-.3-.4-.2h-.3l-.2-.2-.2-.1-.3-.1-.2-.1h-.2a4.7 4.7 0 00-.8-.3h-.2l-.1-.1-.3-.1a18 18 0 00-.7-.2h-.3l-.2-.1a8 8 0 00-.5-.1h-.5l-.2-.1h-.2l-.3-.1h-.3-.2-.2-.2l-.2-.1h-.6-.7-.2-.3-.5-.7a10.6 10.6 0 01-.5 0h-.5-.2-.2-.3-.2a6.8 6.8 0 00-1 .2h-.2a7.3 7.3 0 00-.8.2H111l-.3.1-.2.1h-.2-.3l-.1.1a1.8 1.8 0 00-.6.1h-.2l-.2.1h-.3l-.3.1a2.1 2.1 0 01-.4.1h-.2l-.2.1h-.3l-.3.2H106.6l-.3.1-.3.2h-.2-.2l.1.5v.2H106l.3-.2h.4l.2-.1.2-.1h.3l.2-.1h.3l.2-.1h.2l.3-.1.2-.1h.2a2.3 2.3 0 00.5-.2h.7l.2-.1h.2l.3-.2h.7l.2-.1h.2l.2-.1a8.4 8.4 0 01.8 0l.2-.1H114a2.7 2.7 0 00.5-.1H115.5a9.3 9.3 0 011-.1h2.1l.2.1a3.8 3.8 0 00.5 0h.2l.3.1h.4l.3.1h.4a12.8 12.8 0 01.5.2h.5l.4.2h.2l.3.2h.4l.2.1.2.1.3.1h.2l.2.2h.2l.2.2.2.1h.1l.3.2h.1l.4.2.2.1.2.1h.1l.3.2.2.2.2.1.3.2a2.3 2.3 0 00.1.2h1.1v-.1a15.6 15.6 0 00-.6-.4zM110 107l-.2.2-.2.1-.1.2-.3.1-.2.2-.1.2h-.2a1.9 1.9 0 00-.4.4l-.2.2-.1.1-.3.2-.2.2-.1.1-.2.2-.1.2-.2.1a7 7 0 00-.6.5l-.1.2-.2.1-.2.2-.2.2-.3.3-.2.2a7.1 7.1 0 00-.4.4v.1l-.3.3v.1l-.2.1-.3.2a6.8 6.8 0 00-.3.4l-.2.3-.2.2-.2.2-.2.2-.2.2-.1.2-.1.2-.2.1-.2.2-.1.2-.2.2.3.4.1.2.2-.2.1-.2a2.5 2.5 0 01.3-.3l.2-.2.1-.3.1-.1a3.6 3.6 0 01.4-.4l.1-.1.2-.2.3-.4.2-.1.1-.2.2-.2a2 2 0 00.3-.3l.2-.2.2-.3h.1c0-.2.1-.2.2-.3l.1-.1.4-.4.2-.1.1-.2.2-.1a4.1 4.1 0 00.4-.4l.1-.1a5.9 5.9 0 01.4-.4l.2-.1.1-.2.2-.2.2-.1.1-.2.3-.1.1-.2.2-.1.2-.2.2-.1.2-.2.1-.2h.2a2.5 2.5 0 00.4-.4l.2-.1.2-.2.2-.1.2-.2.1-.1.2-.1H110zM132 120.5v-.1l-.3-.2a6.2 6.2 0 00-.4-.2l-.2-.2a1.5 1.5 0 01-.4-.2l-.2-.1-.4-.3-.2-.1-.2-.1a3.7 3.7 0 00-.4-.3h-.3l-.1-.2h-.2l-.2-.3h-.3l-.1-.2h-.2l-.2-.2-.2-.1-.2-.2-.2-.1-.2-.1-.2-.2h-.2l-.3-.2-.2-.1-.1-.1-.2-.2-.3-.1h-.2l-.4-.3-.2-.1-.2-.2h-.2l-.2-.2-.2-.1a9 9 0 01-.4-.2l-.2-.2-.2-.1a9.8 9.8 0 00-.8-.5l-.2-.1-.3-.1-.2-.1-.2-.1-.2-.2-.1-.1-.2-.1-.3-.1a1.2 1.2 0 01-.3-.2l-.3-.2a6.8 6.8 0 01-.5-.4l-.2-.2-.1-.1-.2-.3-.3-.1-.1-.1-.1-.2-.2-.2-.2-.2-.1-.2-.2-.1a3 3 0 00-.3-.4l-.1-.2-.2-.2-.1-.1-.1-.1-.2-.3v-.2l-.2-.3-.1-.2-.2-.1-.1-.4-.1-.3a3 3 0 00-.1-.4l-.1-.3v-.2-.2l-.1-.3h-.7V107.4a2 2 0 00.3.8v.2l.2.3.1.4.2.3.1.2.1.1.1.3.2.3.1.1.2.3.1.1.2.3h.2v.2l.3.3.2.2.1.1.1.2.2.2.3.2.1.1.2.2.2.2.2.2.2.1.1.1a7 7 0 00.5.4l.2.1.3.2h.1l.2.1.2.2h.1l.3.3h.3l.1.2h.2a5 5 0 00.7.4l.2.1.2.2h.1a2 2 0 00.4.3l.3.2.2.1.2.1.1.1.3.2.4.2.3.1h.1l.2.2a2 2 0 00.6.4h.2a6.2 6.2 0 00.6.5h.2l.2.2.2.2.2.1.3.1.1.1.2.1a1.9 1.9 0 00.5.3l.2.1.2.1.2.1.2.2h.2l.4.3.1.1.2.2.3.1.2.1.2.1.2.2h.1l.2.3h.2a5.9 5.9 0 00.4.4h.1v-.1a24.3 24.3 0 00-.3-.9z" fill="#153159"/>
  <path d="M92.7 128l-.2.1h-.2a3 3 0 01-.3 0v.1h1.1l-.4-.1zM94.2 128c-.3 0-.3.2-.5.2h-.3 1.2l-.4-.2zM99.5 128c-.2 0-.3.1-.3.2h.6l-.3-.1zM96.6 128.1h-1.8a404.4 404.4 0 012 0h.1-.3zM102.8 128h-.5c-.2 0-.2.2-.5.2h-.2H103.2l-.4-.1zM105.8 128.1H105h.9zM98.5 128l-.5.1h-.8 1.3zM96.3 111l-.8.4-.4.2-.5.2-.3.2.2.2.5.1.3.4.3.2v-.1l.7.5.2.2.4.2c.2.1.2.3.3.4l.4.4.4.2.2.4.5.3.2.4.4.3.3.4.2.4.4.4.2.4.4.3.2.4.3.4.3.4.2.4.3.4c0 .2.2.3.3.4l.1.5.3.4.2.4.3.4.2.4.2.5.3.3.2.5.2.4.2.5.2.4.2.4c0 .2.2.3.3.4l.1.5.2.4.1.5.1.2v-.5-.3l-.1-.2v-.4l-.1-.6v-.4l-.2-.5v-.5l-.2-.5v-.4l-.2-.5-.1-.5-.2-.4v-.5l-.3-.4-.1-.5-.2-.5-.1-.4-.2-.4-.2-.5-.2-.4-.2-.4-.3-.5-.2-.4-.2-.4-.2-.4-.2-.3v-.2c-.2-.1-.3-.2-.3-.4l-.3-.4-.3-.3-.3-.4c0-.2-.2-.3-.3-.4 0-.2-.2-.3-.3-.4l-.3-.4-.3-.3c0-.2-.2-.3-.3-.4l-.3-.3-.4-.4-.3-.3-.4-.3-.3-.4h-.1l-.3.1a68.4 68.4 0 00-1 .4zM101.1 128.1h-.8-.2 1z" fill="#000"/>
  <path d="M26.6 127.8v-.2-.2l.1-.2v-.3-.2a6 6 0 01.2-.5v-.2-.3l.1-.2.1-.3.1-.2v-.2-.2-.2l.1-.3v-.3l.1-.2.1-.2v-.2-.2-.3-.3-.2l.1-.2v-.3l.2-.3v-.1-.2-.3-.3l.1-.2v-.2-.2-.3l.1-.2v-.2-.3-.3l.1-.2v-.2-.2-.2l-.1-.3v-.3l.1-.2v-.2-.2-.2l-.1-.3v-.4h.1v-.3-.3a3.5 3.5 0 010-.4l-.1-.3a11.1 11.1 0 01-.1-.6l-.1-.3v-.2-.3l-.1-.2v-.1l-.2-.3v-.2l-.2-.2v-.1l-.2-.3-.1-.2-.1-.2h-.1l-.2-.3-.2-.3-.4-.4a3.5 3.5 0 00-.8-.3l-.4-.2-.3.3-.4.3-.3.4-.3.3-.3.4-.2.5-.3.3-.3.4-.3.4-.2.4-.1.1-.2.3-.1.2-.2.2-.3.3-.2.5-.2.4-.1.2-.2.2v.1l-.2.3c0 .2-.2.3-.3.4l-.2.4-.2.5-.2.4-.1.5-.2.4-.2.4-.1.3-.1.2v.5l-.2.4v.1l-.2.4-.2.4v.5l-.1.5-.2.4-.1.5v.5l-.1.4v.5l-.2.5v.9l-.1.5v1.4h1l.5.1H20c.2 0 .2-.2.5-.2h.5l.4.2.5-.1h5-.4l.1-.3zM82.5 128a8 8 0 00-.5-.5c-.1 0-.2 0-.3-.2l-.3-.3-.2-.2-.2-.1-.2-.2-.1-.1-.2-.1-.2-.2-.3-.2v-.1h-.2l-.3-.2-.2-.3-.1-.1-.4-.3h-.2l-.2-.2h-.2l-.3-.2-.2-.3h-.1l-.2-.2-.2-.1-.4-.3h-.2l-.2-.2-.3-.2H76l-.2-.2-.2-.2h-.2s-.2 0-.3-.2a3.9 3.9 0 01-.4-.2l-.2-.2h-.2l-.2-.2-.2-.2-.2-.1-.1-.2h-.2s-.2 0-.3-.2l-.2-.1-.2-.2h-.1c-.1 0-.2 0-.3-.2l-.2-.1-.2-.2a4.9 4.9 0 01-.4-.2 1 1 0 01-.4-.1l-.3-.2-.1-.2h-.2l-.3-.1-.2-.1a4.3 4.3 0 01-.5-.3l-.1-.1-.2-.2H69l-.2-.2-.2-.1-.2-.2-.2-.1-.2-.1-.2-.2h-.2l-.2-.2-.2-.1-.2-.2c-.1 0-.2 0-.3-.2h-.1l-.2-.2-.2-.1-.2-.2-.2-.1-.2-.1-.2-.2-.2-.1a4.6 4.6 0 01-.4-.3l-.2-.2-.2-.2-.1-.1H64l-.2-.3-.2-.2-.2-.1-.1-.2-.2-.1-.2-.1s-.2 0-.2-.2l-.3-.2v-.1a4.8 4.8 0 01-.4-.3l-.3-.3-.3-.3v-.2h-.2l-.3-.3-.1-.1-.2-.2-.2-.1-.2-.2-.2-.2v-.2c-.2 0-.2-.2-.3-.2v-.2h-.2a19 19 0 01-.5-.6v-.1l-.1-.1-.3-.2v-.2c-.2 0-.2 0-.3-.2l-.2-.2v-.2l-.2-.2-.1-.2-.2-.1-.2-.2-.1-.2-.2-.2-.1-.3-.1-.1-.1-.1-.3-.3v-.3l-.1-.1a4 4 0 01-.3-.4v-.2l-.3-.2-.1-.3v-.1l-.2-.1-.3-.3v-.2l-.2-.2-.1-.3v-.2h-.2c0-.2-.1-.2-.2-.3v-.3l-.1-.2-.1-.3-.1-.2-.1-.1-.2-.3a13 13 0 00-.3-.8l-.2-.3v-.2c-.2-.1-.2-.3-.3-.4v-.3l-.1-.2-.1-.1-.1-.3-.1-.2-.1-.2-.1-.4v-.1l-.1-.2-.1-.3v-.2h-.1l-.5-.1-.5-.1h-.5l-.4-.1H47 47l-.4.2h-.9l-.5.2h-.4l-.5.1h-.5l-.4.3h-.5l-.5.2H42h.4l.3.3H43.3l.5.2h.2l.3.1.3.2h.1l.2.1h.3l.3.3.3.1.2.1c.2 0 .2.1.3.2h.2l.1.1.3.2h.2l.3.1.2.2.2.1.2.2.1.1.2.1.3.2h.1l.3.2.1.1.3.2.2.2.2.1.2.3v.1l.2.1.3.2.2.3.3.4v.1l.2.3.1.1.1.1.3.3.1.2.1.2.2.3v.1l.2.2.1.2a15 15 0 01.5 1l.2.4v.2l.1.2v.3l.1.2v.1l.3.4V110.4l.1.2.1.3v.1l.2.3v.8l.1.2v.2l.1.2v.5l.2.1.1.3v.2l.1.3v.8l.1.2v.2l.1.2v1l.1.2v.8l.1.1.1.3v.6l.2.4V119.5l.1.3v1a11.3 11.3 0 000 .4l.1.2v.9l.2.4v2l.1.3v3l.1.1h-.2H62l.5.1c.2 0 .2-.2.5-.2l.4.2H65l.5-.1h5.2l.5.1c.2 0 .2-.2.5-.2h.9c.3 0 .3.2.5.2l.5-.1h9.1-.2zM52.7 98.7z" fill="#153159"/>
  <path d="M55.2 127.6v-.2a7.8 7.8 0 010-.6v-.3-.3-.2-.2-.2-.3-.2-.2l-.1-.3v-.2l-.1-.3v-.3a1 1 0 000-.4v-.2-.3-.2-.1l-.1-.4v-.3-.1-.2a3.6 3.6 0 010-.5l-.1-.3v-.2-.2-.4-.1l-.1-.2v-.3l-.1-.3v-.2-.1l-.1-.3v-.3-.2-.1l-.2-.4v-.2-.2-.2a4 4 0 01-.1-.5v-.3-.3-.2-.2a2.2 2.2 0 01-.2-.7v-.3-.2-.3l-.1-.1v-.1l-.3-.4v-.2-.2-.2l-.1-.3v-.3-.2l-.1-.3v-.1-.2c-.1 0-.2-.1-.2-.3l-.1-.2v-.2l-.1-.3v-.2-.3-.2l-.2-.1a1.2 1.2 0 01-.2-.6v-.2-.2l-.1-.2-.1-.2-.1-.2a12.4 12.4 0 00-.6-1l-.1-.3-.1-.2-.1-.2a4.4 4.4 0 01-.3-.4 1 1 0 01-.5-.5v-.2l-.2-.2-.1-.2a19.7 19.7 0 00-.5-.4l-.2-.2-.2-.2v-.2l-.2-.1-.2-.2-.2-.1-.2-.2h-.2l-.2-.2-.2-.1a2.3 2.3 0 01-.4-.3l-.2-.1-.2-.2H47l-.1-.2h-.3l-.2-.1-.2-.1-.3-.2h-.1l-.2-.2h-.3l-.2-.2-.2-.1h-.1l-.3-.1-.3-.1-.1-.1a5 5 0 01-.5-.2l-.4-.1h-.5a.9.9 0 01-.4-.2H42h-.3a3.4 3.4 0 01-.5-.2H41l-.1-.1h-.2-.2l-.4.2h-.5l-.5.2-.4.2-.4.2-.5.2-.4.1h-.2l-.3.1c-.2 0-.3.3-.4.3l-.5.2-.4.2-.4.2-.4.2-.5.2-.4.3-.4.2-.4.2-.5.2-.4.3-.4.2-.4.2-.4.3-.4.3-.4.2-.4.3-.3.4-.4.2-.4.4-.4.2-.3.3-.4.3-.3.2h-.1l-.2.4v.1l-.5.3-.3.2c-.2.1-.2.4-.3.5l-.5.2-.1.3h.1a4.4 4.4 0 011 .5l.4.3.2.4.2.2.2.2.2.4v.1l.1.1.2.3a2.6 2.6 0 01.2.5v.1l.2.4v.5l.1.1.1.3v.2a2.5 2.5 0 01.1.5 7.1 7.1 0 01.1.6V119.7l-.1.2v.5l-.1.3V121.4l-.1.3v.1a5 5 0 01-.2.5v1.2l-.1.2v.3l-.1.2v.5l-.1.2v.3l-.2.3V125.8a3.6 3.6 0 01-.2.5v.5l-.1.2v.5l-.1.2v.3c.1 0 .1.2.4.2h.4l.5-.1h3.8l.5.1.5-.1h8a1.8 1.8 0 01.1-.5v-.2l.1-.3v-.2l.1-.1v-.3-.2-.3-.1-.4l.1-.3v-.1-.5a3.5 3.5 0 01.1-.5v-.1a1.9 1.9 0 010-.6v-.2-.1a1 1 0 01-.1-.6v-.2-.3-.2-.2-.3l-.1-.4v-.2l-.2-.3v-.3-.1-.3-.2l-.1-.2v-.3l-.1-.2v-.2-.3-.2l-.1-.1-.2-.3v-.3-.2-.1l-.3-.3v-.4l-.1-.3-.1-.2v-.2l-.2-.2-.1-.4v-.2l-.2-.3a10 10 0 00-.4-.8l-.1-.2-.2-.2-.1-.2-.2-.2v-.1l-.2-.3a1 1 0 01-.1-.4l-.2-.1-.2-.3-.1-.1a6.4 6.4 0 00-.7-.8 1.6 1.6 0 00-.2-.3l-.2-.2-.2-.3v-.1l-.2-.1-.2-.2-.2-.2-.1-.2H36l-.3-.2-.2-.2-.2-.1-.2-.3-.3-.3-.1-.1-.2-.1-.2-.2c-.1 0-.2 0-.2-.2H34l-.2-.2-.2-.1-.1-.1-.3-.2-.4-.2h-.1l-.3-.2h-.2l-.2-.2-.3-.2v-.1l-.3-.1-.2-.1-.3-.2h-.1l-.2-.1-.3-.1h-.1l-.3-.1h-.1a35.5 35.5 0 01.8-.5h.2l.3.2.2.1.2.1h.2l.2.2.3.2.1.1.2.2h.2l.2.1.3.1.4.3h.1l.3.2.2.1.2.2.2.2.2.1.1.1a1.6 1.6 0 01.5.4l.1.1.3.2v.2l.2.1.2.2h.1l.3.2.2.3.1.1.2.1.2.2.2.3v.1l.2.2.2.2.2.2.1.2.1.1.2.2.2.3.1.1.1.1.3.3.1.3v.2l.2.2v.2h.2c0 .2.1.2.2.3v.2l.2.2a13 13 0 01.6 1.2v.2l.1.3v.1l.2.2.1.3v.1l.2.3v.5l.1.1.2.3v.5l.1.1.2.3v.8a1.7 1.7 0 00.1.4v.3l.1.2v.2l.1.4V120.5l.1.3v.5l.1.2v1.3l.1.4v1.9l-.1.4V127l-.2.4v.4l-.1.2v.1h-.3H55.2v-.2-.3zM41.4 99.6l-.2.1a38.7 38.7 0 01.2 0zM92.5 128.1H92a25 25 0 00-.2-.8v-.2l-.1-.2-.1-.2-.1-.5-.1-.1-.2-.3v-.4-.1-.2l-.1-.2-.1-.2s-.2-.1-.2-.3v-.2l-.1-.2-.1-.2-.1-.2-.1-.3v-.2l-.2-.2v-.2l-.2-.3a1.9 1.9 0 00-.1-.4l-.1-.2v-.2l-.2-.3v-.2l-.2-.2v-.3-.2H89a1.3 1.3 0 01-.2-.6l-.1-.2-.1-.3v-.1l-.1-.2-.2-.2-.1-.2-.2-.2-.1-.3v-.2l-.2-.2v-.2l-.2-.1-.1-.3-.2-.3v-.1l-.1-.1-.2-.3a1 1 0 01-.1-.3v-.1l-.2-.1a1.6 1.6 0 01-.3-.4l-.2-.2-.1-.1a1.8 1.8 0 01-.4-.4l-.1-.1-.2-.2-.1-.1H85l-.3-.2-.4-.2-.4-.2a2.6 2.6 0 00-.4-.2h-.2l-.2-.1-.2-.1-.2-.1h-.2-.3l-.2-.1h-.2-.2l-.3-.1H81h-.2-.3l-.3.1-.4.2-.5.1-.4.4h-.5l-.4.4-.4.1-.5.1-.5.2-.4.3h-.5l-.4.2h-.5l-.5.2-.4.2h-1.5l-.5-.2h-1.4l-.5-.2a5 5 0 01-.4-.2l-.4-.3-.4-.2-.4-.4-.2-.4-.4-.3a10 10 0 01-.3-.3l-.2-.5-.3-.4-.3-.4-.2-.4-.2-.4-.3-.4c0-.1 0-.3-.2-.5l-.1-.4-.4-.3-.1-.5-.3-.4v-.3-.2l-.4-.4c0-.1 0-.3-.2-.4 0-.2-.2-.3-.3-.4l-.1-.5-.3-.4-.3-.3-.3-.4-.3-.4-.3-.4-.2-.4-.4-.3-.3-.4-.3-.4-.3-.3-.4-.3-.4-.3-.4-.2-.3-.4-.4-.3-.5-.1-.3-.3-.5-.2-.4-.2-.5-.2-.4-.1-.4-.3a7 7 0 00-.5-.1l-.4-.2h-.5L54 99l-.4-.1-.5-.1-.2-.1v.2l.2.3v.4l.2.2v.3l.2.1v.3l.2.3v.1l.2.5v.1l.2.3.2.4.1.2.1.2.1.2.2.2v.3l.2.2v.3l.1.1.1.2.2.2.1.3v.2l.2.2.1.2h.1l.3.3v.3l.2.1v.2c.1 0 .2 0 .3.2a4.8 4.8 0 01.2.4l.2.4v.2c.2 0 .3.1.3.2l.2.2v.2l.2.2.2.2v.1a2.3 2.3 0 01.4.4l.1.2.2.2.1.2.2.2.1.2h.2l.2.3a15.2 15.2 0 00.5.6h.1l.2.3.1.2.2.2v.1l.2.2c.1 0 .2 0 .3.2l.1.1.2.2h.2l.2.3.2.2v.1l.2.2.2.2a4.9 4.9 0 01.3.3l.2.2.2.1.1.1.3.2.2.1a11.9 11.9 0 01.4.4v.1l.2.1.3.2.2.2.1.1.2.2a14.8 14.8 0 00.4.2l.2.2.2.1.2.2a8.2 8.2 0 01.5.3l.3.2.2.2.1.1.2.1.2.1.3.2a6.5 6.5 0 01.3.2l.2.1.3.2.1.1a5.4 5.4 0 01.4.3h.2l.2.2.3.2h.1l.2.2.2.1h.2l.3.2.3.2.2.1.4.1.2.2h.2l.2.3h.2l.1.2h.3l.2.3h.2l.1.2h.3l.2.3h.2l.2.2.2.2h.1a14 14 0 01.5.4h.2l.1.1.3.2.3.1.1.2.2.1.2.2h.2l.2.2.4.2.2.1.3.2.2.2.1.1h.1l.4.2.1.1.3.2.4.3.2.2v.1l.2.1c.1 0 .2 0 .3.2l.3.2v.1l.2.1.3.2h.1l.3.3.2.2.1.1a12.7 12.7 0 01.5.5c.1 0 .2 0 .3.2l.3.3.2.4.2.2H88l.4.1h.5l.5-.1h3.1zM105.7 128.1h.1c.2 0 .2.1.4 0 .2 0-.2 0-.3-.4v-.3l-.2-.1-.1-.5-.2-.4-.1-.5-.3-.4-.2-.4-.2-.4-.2-.5-.2-.4-.2-.5-.3-.4-.2-.4c0-.1 0-.3-.2-.4 0-.2-.2-.3-.3-.4l-.2-.4-.3-.4-.1-.5-.3-.4-.3-.4-.2-.4-.3-.4-.3-.4-.2-.4-.4-.3-.2-.4-.4-.4-.2-.4c-.2 0-.2-.3-.3-.4l-.4-.3-.2-.4-.5-.3s0-.3-.2-.4l-.4-.2a18 18 0 00-.4-.4l-.3-.4-.4-.2-.2-.2v.5l-.2.3v.4a2.5 2.5 0 01-.1.7v2.6l.1.3v.5l.1.4v.7l.1.2.1.3v.2l.1.2.1.3v.2l.2.2v.1l.1.3v.4l.1.1.1.2a4.1 4.1 0 01.2.4l.1.3.1.2.1.2.2.4.3.4v.1l.3.3.1.3v.1l.2.1.2.2a3.6 3.6 0 01.3.4l.2.3v.1l.2.1.2.2.2.3v.1l.2.2.3.1.1.3.1.1h.2l.3.3.2.2h-.3a.5.5 0 00.3 0H103.2l.6.1h1.4l.5-.1z" fill="#153159"/>
  <path d="M100.3 128.1l-.2-.3-.1-.1-.2-.1-.2-.2-.2-.3v-.1l-.2-.1-.3-.2-.1-.3-.1-.2-.2-.2v-.2h-.2l-.3-.3-.1-.4-.1-.2-.3-.2a19.1 19.1 0 01-.4-.8v-.1l-.2-.2a4.5 4.5 0 01-.3-.7v-.1l-.2-.3v-.4-.1l-.2-.4v-.1l-.1-.2-.1-.3v-.2a4 4 0 01-.2-.4l-.1-.3v-.2l-.2-.3v-.4-.7-.4-.2l-.1-.2v-.2l-.1-.3v-.3-.2-.2-.3-.4l.1-.1v-.1-.4-.3a1.5 1.5 0 000-.4v-.3l.1-.3v-.2l.1-.2v-.2-.2-.2l-.3-.2-.3-.4-.5-.1-.2-.2-.1-.1-.5-.3-.4-.1-.5-.2h-.4l-.5-.3-.5-.1H90l-.5-.2H89l-.4.2h-1l-.5.2-.5-.1h-.5c-.1.1-.2.3-.4.3h-1l-.4.2c-.2 0-.3.2-.5.3h-.5l-.4.2c-.1.1-.3 0-.5.2H82l-.4.3-.5.1-.3.2a32.4 32.4 0 011.3-.4h.3l.2.1h.4c.2 0 .2.1.3.2h.2l.3.2H84l.3.2.4.2.4.2h.2l.3.2.3.3.3.3.1.1.2.1.2.2.2.3.1.2h.1l.2.3.2.4.1.2.2.2.2.4v.1l.1.2.2.2.1.3.1.1.1.3v.2l.2.1.2.3v.1l.2.3.1.3v.1l.2.3v.2l.1.1.2.3.1.3v.2l.1.1.1.3a5 5 0 01.2.4v.2l.2.3v.2l.1.2.1.2.2.3v.4l.2.2.1.3v.2l.1.2.1.1.2.3v.2l.1.3v.4l.1.2.2.3.1.5v.2l.2.2v.5a27.4 27.4 0 01.2.7H93.1l.1.1h.5c.2 0 .2-.2.5-.2l.4.2a.4.4 0 00.2 0c.1 0 .1-.2.3-.2l.5.1H97a.8.8 0 00.3 0h1.6l.2.1a.4.4 0 00.2 0l.3-.1h.3l.1.1h.2l.2-.1z" fill="#153159"/>
  <path d="M80.5 113H82.1a2.2 2.2 0 00.7.2h.2l.2.2h.2l.2.1.2.1.2.1.4.2.3.2h.1l.3.1h.2v.2l.3.2.1.1.2.2.2.2h.1l.2.3v.2c.2 0 .2.1.3.2h.1v.2l.2.3.2.3.1.2.2.3.1.3.1.1.1.2.1.2.1.2.1.3.2.2v.2l.3.2v.2l.1.1v.3l.2.2v.2l.2.3.1.1v.2l.1.3a13.2 13.2 0 00.3.7v.2l.2.2v.2l.1.2.1.3.1.2.1.2v.2l.2.3.1.2v.2l.1.2.1.2c0 .2.1.3.2.3v.2l.1.2.1.2v.5l.2.3v.1l.2.5v.2l.2.2v.5a27 27 0 01.2.5h.6v-.2l-.1-.5v-.2l-.1-.3-.1-.2v-.2l-.2-.5-.2-.3v-.1-.1-.4l-.2-.3v-.2l-.2-.3-.1-.3-.1-.2-.1-.3-.1-.2v-.2l-.1-.2-.2-.3v-.2l-.1-.2-.1-.2-.1-.3-.1-.2v-.1a4.7 4.7 0 00-.3-.6v-.1l-.1-.2v-.3l-.3-.3v-.1l-.1-.2-.1-.3v-.1l-.2-.3-.1-.3-.1-.1-.2-.3-.1-.1v-.2l-.2-.3v-.1l-.2-.3-.2-.2v-.2l-.1-.1-.2-.4-.2-.2v-.1l-.1-.1c0-.1 0-.3-.2-.4l-.2-.2v-.1l-.2-.2-.2-.3-.2-.2a1.2 1.2 0 01-.3-.2l-.2-.2-.1-.1-.3-.3a1 1 0 00-.3-.1H85a5 5 0 00-.4-.3l-.4-.2-.3-.1h-.2l-.1-.1-.3-.2h-.2l-.3-.1h-.3l-.1-.1h-.2a2.2 2.2 0 00-.5-.1l-1 .4-.3.1zM83.3 128.1l-.2-.1v-.1c0-.1 0-.3-.2-.4l-.3-.3-.3-.2-.1-.1a11.4 11.4 0 00-.5-.5l-.2-.2-.3-.2-.1-.1-.3-.2h-.1l-.1-.2-.3-.2-.3-.2H80v-.2l-.3-.2-.4-.3-.3-.2h-.1l-.4-.2h-.1v-.2l-.3-.2-.3-.2h-.2l-.4-.3-.2-.2h-.2l-.2-.2-.2-.1-.1-.2-.3-.1-.3-.2h-.1l-.2-.1a4 4 0 00-.5-.3l-.1-.1-.2-.2-.2-.1-.2-.1-.2-.2-.3-.1-.1-.1-.2-.1-.2-.2-.3-.1-.1-.1-.2-.1-.2-.2-.2-.1-.2-.2h-.4l-.1-.1-.1-.1-.3-.2-.3-.1h-.2c0-.1 0-.2-.2-.2l-.2-.1-.1-.1-.3-.2-.2-.1-.2-.1-.1-.1a5.3 5.3 0 00-.4-.3l-.3-.2-.2-.1-.2-.1-.1-.1a4.6 4.6 0 01-.5-.3l-.2-.1-.1-.1-.2-.2-.3-.2h-.1l-.2-.2-.2-.1-.2-.2-.2-.1-.2-.2a3.6 3.6 0 01-.4-.2l-.2-.2-.1-.1-.2-.2-.3-.2h-.1l-.1-.2-.2-.2-.2-.2-.2-.1-.3-.2h-.1l-.2-.2-.2-.2-.1-.1-.2-.2-.2-.2-.1-.2H62c0-.2-.1-.3-.2-.3l-.2-.2-.2-.1-.2-.2-.1-.1-.3-.2-.1-.2-.1-.1-.2-.2v-.2l-.3-.2v-.1a18.3 18.3 0 01-.5-.6l-.3-.2-.2-.1-.1-.2-.2-.2-.1-.2-.2-.2v-.2l-.2-.2-.2-.2-.1-.1-.2-.2-.1-.2-.1-.2-.2-.2-.2-.2-.1-.1v-.1c0-.2 0-.3-.2-.4a3.7 3.7 0 01-.2-.4l-.2-.2-.1-.2-.1-.1-.1-.3a1 1 0 00-.3-.2v-.1a6.3 6.3 0 01-.4-.6l-.1-.3-.2-.2v-.2l-.1-.1-.1-.3-.1-.2-.1-.3-.2-.2v-.2l-.2-.2v-.2l-.2-.3v-.1l-.2-.3-.1-.1-.2-.5v-.1a1.5 1.5 0 00-.2-.6l-.1-.1-.1-.3-.1-.2v-.2l-.1-.2-.1-.3-.1-.2a11 11 0 00-.7-.1v.3l.2.3V99.6l.2.4v.2l.2.2.1.3v.1l.1.2.1.3a11 11 0 00.4.9l.2.4.1.2.1.2.2.3.1.1v.2l.2.3v.2l.1.3.2.2.1.1v.2l.2.3a4 4 0 01.2.4l.3.3h.1v.2l.2.3.2.2.1.2.1.1.2.3.1.4.3.3h.1v.2l.2.3.2.2a12.7 12.7 0 01.3.4l.2.1v.2l.2.2.2.2.1.2.2.2.1.2.3.2.1.1.3.4.2.2.1.1.1.2.2.2.1.2.2.2.2.2.2.1.2.2.1.1.3.2.1.1.1.2.2.2.1.1.3.3.1.1.2.2.1.1.3.2.2.2h.2l.2.2.1.2.2.1s0 .2.2.2l.2.2.2.1.1.1.2.2.2.2.2.1.2.2.2.1.2.2h.2a41.4 41.4 0 01.8.6l.1.1.3.2.2.2h.2c0 .2.1.2.2.3h.2l.2.2h.2l.2.2.2.2a6.4 6.4 0 01.4.2l.2.1.2.2h.1l.3.2.2.2h.2l.3.2h.2l.1.2s.2 0 .3.2h.4l.2.2.2.1.2.2.2.1.3.2h.1l.2.2.2.1.3.2h.2l.1.2.2.1.2.2.2.1.2.1.2.2h.2l.2.2.3.2h.2l.2.2.2.1.1.1.3.2.2.1.2.1.4.3.2.1.2.1v.1l.3.3.4.1.3.2.2.1.4.3.3.4.3.1h.1l.2.2a1.3 1.3 0 00.4.4h.2c0 .1 0 .2.2.2l.1.2.2.1.2.2.3.3.3.2.1.1.3.4v.1h.9zM96.3 113.3l-.6-.5v.7l-.1.2v.2l-.2.3v1.6l-.1.4v.3a5 5 0 010 .4v.6l.1.2v.4l.1.4v1.1l.1.3.1.2v.3a5.3 5.3 0 01.2.4v.2l.2.3v.2l.1.1a10.3 10.3 0 00.1.5v.4l.2.3.1.1a5 5 0 01.2.5l.1.2.1.2a4.8 4.8 0 00.5.9l.3.2v.2l.2.4.3.3h.1l.1.2.2.2v.2l.2.3.3.2h.1l.1.2a1.3 1.3 0 00.4.5l.2.1v.1l.3.3h1.1l-.2-.2-.3-.2h-.2v-.2l-.2-.3-.3-.1-.1-.2-.1-.1s0-.2-.2-.3a1 1 0 00-.2-.2h-.2v-.2l-.2-.3-.1-.2-.2-.2-.2-.2h-.1v-.2l-.2-.3a1 1 0 00-.2-.3H98a18.6 18.6 0 01-.4-.8v-.1l-.2-.2-.1-.2-.1-.3v-.2c-.1 0-.2 0-.2-.2l-.1-.2v-.1-.4l-.2-.3v-.1l-.1-.2v-.2l-.2-.3v-.2-.2l-.2-.3v-.2l-.1-.2v-.1-.4V118.4v-.3a3.4 3.4 0 00-.1-.5l-.1-.3v-.2-.2a2.5 2.5 0 000-.5v-.2-.2-.3-.3-.2-.2-.2-.3-.2l.1-.2.1-.3v-.2l.1-.2v-.1zM42.1 128v-.2-.3l.1-.1.1-.4v-.1l.1-.3v-.3-.2-.4-.1-.1l.1-.4v-.5-.2-.2-.3-.2-.2-.3-.4h-.1v-.3-.3-.1-.3-.3-.2-.4l-.2-.4v-.2-.1-.4-.2l-.1-.2v-.3a2.1 2.1 0 01-.2-.4v-.3-.1-.4l-.2-.3v-.1-.2-.3a1 1 0 00-.3-.3v-.1-.1-.4l-.2-.3-.1-.1-.1-.3-.1-.2v-.1l-.1-.3v-.2a8.8 8.8 0 00-.7-1.2l-.1-.2-.1-.2-.2-.2-.1-.1-.1-.2-.2-.2v-.2l-.1-.3-.3-.3h-.1v-.2c-.2 0-.2-.2-.3-.3l-.2-.2-.1-.1-.1-.2-.2-.2-.2-.2-.1-.2-.3-.4-.2-.2h-.2v-.2l-.3-.3-.3-.1v-.1l-.3-.2-.1-.1-.1-.2-.3-.2-.1-.1-.2-.2-.3-.2h-.1l-.2-.2s0-.2-.2-.2a4.5 4.5 0 00-.4-.3l-.3-.1-.1-.1a14.8 14.8 0 00-.7-.4h-.2l-.2-.1-.2-.2h-.1c0-.2-.2-.2-.3-.3l-.2-.1h-.2l-.2-.2-.2-.1-.3-.1-.2-.1h-.1l-.7.4.4.2h.4l.2.2h.1l.3.2.2.1h.2l.1.2.3.2.2.1.2.1.3.1.1.1.4.2.3.2h.1l.2.2.2.1.2.1c0 .1 0 .2.2.2l.2.2h.2l.1.2.2.2.1.1.2.3a5 5 0 01.4.3l.3.1v.1l.2.2.2.2.2.2h.2v.2l.2.3.2.2.1.1.1.2.2.2.2.2.1.1.2.3v.1l.3.3h.1v.1c0 .2 0 .3.2.4l.1.3.1.1.2.2.1.2.2.2v.2a11.5 11.5 0 01.6 1V115.2l.2.4.1.2v.2l.2.2v.2l.1.2v.3l.2.3v.1l.1.2v.3l.2.3v.8l.1.2v.3l.1.2.1.2v.7l.1.3v.2l.1.4v.3l.1.2V123.4a3 3 0 000 .6l.1.2V125h-.1l-.1.5v1.2a7.3 7.3 0 000 .3l-.2.3v.2a3.4 3.4 0 000 .5h.6v-.1zM27.3 127.7v-.2-.3-.2l.1-.2v-.3l.1-.2v-.2l.1-.3v-.2l.1-.1.2-.3v-.3-.2-.3-.2l.1-.2v-.3l.1-.2.1-.2v-.4-.1-.3-.2-.2l.1-.3v-.1l.2-.3v-.4-.1-.2-.3-.3l.1-.2v-.2-.3-.3-.1-.2l.2-.3v-.3-.2l-.1-.4v-.2-.4-.3-.2-.3-.1-.1-.4-.3-.2-.2a2.8 2.8 0 000-.6v-.2l-.2-.3v-.2a2.7 2.7 0 00-.1-.4v-.2-.3l-.2-.4H28v-.2l-.2-.4c0-.1 0-.2-.2-.3l-.1-.2-.2-.4-.2-.2-.1-.1-.1-.1a1 1 0 00-.2-.4 4 4 0 00-.4-.3 3.9 3.9 0 00-1-.4h-.1c-.2 0-.4.3-.5.4l.4.2a3.5 3.5 0 01.8.3l.3.3v.1l.3.3.2.2v.1l.2.2v.2l.2.3h.1l.1.3v.2l.2.3v.1l.1.2v.3l.1.2v.3l.1.2v.4l.1.3v.7l.1.2v.1l-.1.4v.7l.1.2v.2l-.1.3v.3l.1.2V118.6l-.1.3v1.4l-.1.2-.1.3v.6l-.1.3v.3a12.2 12.2 0 00-.2 1V123.6l-.1.2v.3l-.1.3v.4l-.1.2v.2c-.1 0-.2.1-.2.3v.5l-.1.2a4.6 4.6 0 00-.1.5v.5l-.1.2v.4l-.1.3h.6v-.1l.1-.3zM55.9 128v-.1-.3V127.3l-.1-.3a7.7 7.7 0 010-.7v-.3-.2-.3-.2-.3-.3-.1l-.1-.3v-.2-.2-.3-.3-.2-.1-.3l-.1-.4v-.1-.2a1.5 1.5 0 000-.6l-.1-.2v-.2a10.6 10.6 0 01-.1-.5v-.2-.2-.3-.3l-.1-.2v-.2-.2l-.1-.4v-.1-.2-.3l-.2-.3v-.1-.2a2 2 0 000-.6l-.1-.2v-.3l-.1-.2v-.1-.4-.2l-.1-.2v-.2-.3-.2-.3l-.1-.3v-.2l-.2-.3h-.1v-.3-.3l-.1-.2-.1-.2v-.2-.3-.2l-.1-.3-.1-.3-.1-.1v-.3l-.1-.2v-.2l-.1-.3v-.1-.3l-.2-.4-.1-.3v-.3l-.1-.2-.1-.2c0-.2-.1-.2-.2-.3v-.2a13.6 13.6 0 00-.5-.9l-.1-.2-.2-.2v-.1l-.2-.3v-.2l-.2-.2a1 1 0 00-.3-.3h-.1v-.2l-.3-.3v-.1l-.2-.3h-.1a19.6 19.6 0 00-.5-.6H50l-.1-.2-.2-.3-.2-.1-.2-.2-.3-.2H49l-.3-.2-.1-.1-.3-.2h-.2l-.1-.2-.2-.2h-.2l-.2-.3H47l-.2-.1-.3-.2h-.1l-.2-.1-.3-.2a2 2 0 00-.2 0l-.2-.1-.1-.1-.3-.2h-.3l-.2-.1-.1-.1-.3-.1-.3-.1-.2-.1-.5-.2H43h-.2s-.1-.2-.3-.2H42a4.4 4.4 0 01-.1 0h-.1-.2a32.2 32.2 0 00-.9.4H41l.3.1h.2l.3.1h.4l.1.1.4.2h.4a6.8 6.8 0 011.4.5h.4l.2.2.2.2h.3l.2.1.1.1.3.2h.2l.2.1.3.1.1.1.2.1.2.2.2.1.2.2.2.1.2.1.2.1.2.1.2.2.2.1.2.2.1.1.1.2.2.2.2.2h.2c0 .2.1.3.2.3v.1l.2.2.1.2.1.2.2.2.2.3h.1a3 3 0 01.3.4v.2l.2.2.1.3.1.1a13.2 13.2 0 01.5.9v.2l.2.2v.4l.1.2v.3l.2.3.1.1v.7l.1.3.1.2v.2l.2.4v.2l.1.3v.5l.1.3v.2l.1.2v.2l.2.4.1.2v.5l.1.3v.5l.1.2v1l.1.2v.3l.1.2v.4l.1.4V118.5l.2.3V119.7l.1.2V120.8l.1.3v.5l.1.2v.8l.1.1v.5a3.4 3.4 0 000 .5V124.6l.1.3v1.9a8.9 8.9 0 000 .5V128l.1.2h.7z" fill="#58B5F7"/>
</svg>
